<?xml version="1.0" standalone="no"?>
<!DOCTYPE svg PUBLIC "-//W3C//DTD SVG 1.1//EN" "http://www.w3.org/Graphics/SVG/1.1/DTD/svg11.dtd" >
<svg xmlns="http://www.w3.org/2000/svg" xmlns:xlink="http://www.w3.org/1999/xlink" version="1.1">
<metadata>
Created by FontForge 20150102 at Mon Jan 12 13:48:28 2015
 By uniteet7
Copyright 2012 Google Inc. All Rights Reserved.
</metadata>
<defs>
<font id="NotoSansArmenianRegular" horiz-adv-x="1266" >
  <font-face 
    font-family="NotoSansArmenianRegular"
    font-weight="400"
    font-stretch="normal"
    units-per-em="2048"
    panose-1="2 11 5 2 4 5 4 2 2 4"
    ascent="1638"
    descent="-410"
    bbox="-113 -492 2988 1577"
    underline-thickness="102"
    underline-position="-103"
    unicode-range="U+000D-FEFF"
  />
<missing-glyph horiz-adv-x="1229" 
d="M193 1462h841v-1462h-841v1462zM297 104h633v1254h-633v-1254z" />
    <glyph glyph-name="uniFB13" unicode="&#x574;&#x576;" horiz-adv-x="2474" 
d="M893 0l-25 145h-8q-45 -77 -129 -121t-196 -44q-191 0 -282 98t-91 301v719h180v-707q0 -262 219 -262q150 0 219.5 93.5t69.5 303.5v420h-68q-170 0 -249.5 72t-79.5 231q0 76 41 176l157 -43q-30 -71 -30 -127q0 -87 35.5 -122t127.5 -35h66v69q0 200 87.5 300
t268.5 100q107 0 213 -37l-47 -141q-93 30 -164 30q-91 0 -134.5 -60t-43.5 -190v-71h582v-707q0 -133 53.5 -197.5t165.5 -64.5q150 0 219.5 93.5t69.5 303.5v572h180v-1098h-137l-25 145h-8q-45 -77 -130 -121t-196 -44q-184 0 -278 95t-94 304v567h-402v-946h-137z" />
    <glyph glyph-name="uniFB14" unicode="&#x574;&#x565;" horiz-adv-x="2474" 
d="M1030 0h-137l-25 145h-8q-45 -77 -129 -121t-196 -44q-191 0 -282 98t-91 301v719h180v-707q0 -262 219 -262q150 0 219.5 93.5t69.5 303.5v631q0 200 88 299.5t268 99.5h406v-458h688v-152h-688v-555q0 -133 53.5 -197.5t165.5 -64.5q150 0 219.5 93.5t69.5 303.5v162
h180v-688h-137l-25 145h-8q-45 -77 -130 -121t-196 -44q-184 0 -278 95t-94 304v1030h-224q-96 0 -137 -57.5t-41 -192.5v-1159z" />
    <glyph glyph-name="uniFB15" unicode="&#x574;&#x56b;" horiz-adv-x="2466" 
d="M1612 1100q0 -90 -10 -154h12q48 85 133 127.5t184 42.5q185 0 277 -95.5t92 -305.5v-715h-180v702q0 134 -51.5 199.5t-165.5 65.5q-152 0 -221.5 -93t-69.5 -307v-1059h-180v1901h-224q-96 0 -137 -57.5t-41 -192.5v-1159h-137l-25 145h-8q-45 -77 -129 -121t-196 -44
q-191 0 -282 98t-91 301v719h180v-707q0 -262 219 -262q150 0 219.5 93.5t69.5 303.5v631q0 200 88 299.5t268 99.5h406v-456z" />
    <glyph glyph-name="uniFB16" unicode="&#x57e;&#x576;" horiz-adv-x="2474" 
d="M850 -43q0 105 18 188h-8q-45 -77 -129 -121t-196 -44q-191 0 -282 98t-91 301v719h180v-707q0 -262 219 -262q150 0 219.5 93.5t69.5 303.5v420h-68q-170 0 -249.5 72t-79.5 231q0 76 41 176l157 -43q-30 -71 -30 -127q0 -87 35.5 -122t127.5 -35h66v458h180v-458h582
v-707q0 -133 53.5 -197.5t165.5 -64.5q150 0 219.5 93.5t69.5 303.5v572h180v-1098h-137l-25 145h-8q-45 -77 -130 -121t-196 -44q-184 0 -278 95t-94 304v567h-402v-1286h238v-152h-418v449z" />
    <glyph glyph-name="uniFB17" unicode="&#x574;&#x56d;" horiz-adv-x="3152" 
d="M2120 702q0 134 -51.5 199.5t-165.5 65.5q-152 0 -221.5 -93t-69.5 -307v-1059h-180v1901h-224q-96 0 -137 -57.5t-41 -192.5v-1159h-137l-25 145h-8q-45 -77 -129 -121t-196 -44q-191 0 -282 98t-91 301v719h180v-707q0 -262 219 -262q150 0 219.5 93.5t69.5 303.5v631
q0 200 88 299.5t268 99.5h406v-456q0 -90 -10 -154h12q48 85 133 127.5t184 42.5q190 0 279.5 -97.5t89.5 -301.5v-332q0 -256 254 -256t254 256v713h180v-713q0 -190 -115 -297.5t-323 -107.5q-209 0 -319.5 107t-110.5 302v313z" />
    <glyph glyph-name="uni0548_uni0552.liga" unicode="&#x548;&#x552;" horiz-adv-x="2619" 
d="M184 0v946q0 251 151.5 394t418.5 143q265 0 411 -144.5t146 -396.5v-942h-185v948q0 179 -95.5 277t-287.5 98q-181 0 -278.5 -97t-97.5 -280v-946h-183zM1855 1016h162q326 0 326 -340q0 -82 15 -127t48.5 -64.5t110.5 -19.5h82v-160h-115q-154 0 -239.5 89t-85.5 249
q0 83 -14.5 128.5t-47 65t-108.5 19.5h-134v-856h-184v1462h184v-446z" />
    <glyph glyph-name="uni0578_uni0582.liga" unicode="&#x578;&#x582;" horiz-adv-x="1889" 
d="M920 0v702q0 134 -58.5 199.5t-185.5 65.5q-169 0 -245.5 -93.5t-76.5 -304.5v-569h-180v1098h145l27 -150h10q51 81 143 125.5t203 44.5q202 0 300 -98t98 -305v-715h-180zM1440 1098h180v-946h238v-152h-418v1098z" />
    <glyph glyph-name=".notdef" horiz-adv-x="1229" 
d="M193 1462h841v-1462h-841v1462zM297 104h633v1254h-633v-1254z" />
    <glyph glyph-name=".null" horiz-adv-x="0" 
 />
    <glyph glyph-name="uni000D" unicode="&#xd;" horiz-adv-x="1044" 
 />
    <glyph glyph-name="uniFEFF" unicode="&#xfeff;" horiz-adv-x="0" 
 />
    <glyph glyph-name="uniFEFF" horiz-adv-x="0" 
 />
    <glyph glyph-name="space" unicode=" " horiz-adv-x="532" 
 />
    <glyph glyph-name="space" unicode="&#xa0;" horiz-adv-x="532" 
 />
    <glyph glyph-name="uni0531" unicode="&#x531;" horiz-adv-x="1757" 
d="M1311 1462v-963l-2 -18q28 4 61 4q153 0 229 -79t76 -230v-176h-176v129q0 203 -174 203h-22l-19 -2q-49 -167 -189.5 -258.5t-353.5 -91.5q-265 0 -411 144.5t-146 395.5v942h185v-948q0 -182 96.5 -278.5t286.5 -96.5q181 0 278.5 97t97.5 280v946h183z" />
    <glyph glyph-name="uni0532" unicode="&#x532;" horiz-adv-x="1405" 
d="M184 0v946q0 249 143 393t394 144q258 0 399.5 -143.5t141.5 -397.5v-20h-185v26q0 179 -89.5 277t-268.5 98q-169 0 -260.5 -96.5t-91.5 -280.5v-268h895v-160h-895v-518h-183z" />
    <glyph glyph-name="uni0533" unicode="&#x533;" horiz-adv-x="1489" 
d="M915 0v541h-284q-245 0 -381.5 126.5t-136.5 344.5q0 220 132 345.5t367 125.5q232 0 360 -142.5t128 -398.5v-242h348v-159h-348v-541h-185zM915 700v248q0 179 -78 277t-235 98q-148 0 -227.5 -79.5t-79.5 -231.5q0 -149 83.5 -230.5t242.5 -81.5h294z" />
    <glyph glyph-name="uni0534" unicode="&#x534;" horiz-adv-x="1454" 
d="M41 922v24q0 250 135 393.5t369 143.5q251 0 385.5 -141t134.5 -400v-90h348v-160h-348v-692h-184v948q0 179 -83 277t-249 98q-157 0 -241.5 -98t-84.5 -279v-24h-182z" />
    <glyph glyph-name="uni0535" unicode="&#x535;" horiz-adv-x="1405" 
d="M369 1462v-518h893v-160h-893v-268q0 -182 89.5 -279.5t260.5 -97.5q176 0 267 96.5t91 278.5v27h185v-21q0 -251 -139 -395.5t-394 -144.5q-257 0 -401 143t-144 393v946h185z" />
    <glyph glyph-name="uni0536" unicode="&#x536;" horiz-adv-x="1300" 
d="M98 307h185v-151h186q260 198 385 386t125 408q0 181 -84 277t-244 96q-173 0 -260.5 -97.5t-87.5 -273.5v-30h-184v20q0 255 139.5 398t392.5 143q243 0 383 -144t140 -393q0 -422 -484 -790h295q260 0 260 -250v-111h-184v105q0 100 -127 100h-651v-205h-185v512z" />
    <glyph glyph-name="uni0537" unicode="&#x537;" horiz-adv-x="1370" 
d="M383 944h823v-160h-823v-624h510q171 0 252.5 -75.5t81.5 -231.5v-140h-180v123q0 76 -40 120t-126 44h-682v1462h184v-518z" />
    <glyph glyph-name="uni0538" unicode="&#x538;" horiz-adv-x="1405" 
d="M184 946q0 249 143 393t394 144q258 0 399.5 -143.5t141.5 -397.5v-20h-185v26q0 179 -89.5 277t-268.5 98q-171 0 -260.5 -97.5t-89.5 -279.5v-786h559q171 0 252.5 -75.5t81.5 -231.5v-140h-181v123q0 164 -166 164h-731v946z" />
    <glyph glyph-name="uni0539" unicode="&#x539;" horiz-adv-x="1563" 
d="M1522 946v-160h-322v-153q0 -147 -88 -231.5t-242 -84.5q-147 0 -237 85t-90 231q0 148 97 230.5t273 82.5h103q0 179 -81 278t-245 99q-155 0 -238 -96.5t-83 -280.5v-946h-185v946q0 261 131.5 399t374.5 138t376.5 -140t133.5 -397h322zM909 786q-100 0 -141 -38.5
t-41 -116.5t34 -116t111 -38q78 0 111 38.5t33 117.5v153h-107z" />
    <glyph glyph-name="uni053A" unicode="&#x53a;" horiz-adv-x="1489" 
d="M1100 1462v-518h348v-160h-348v-264q0 -254 -128 -397t-360 -143q-230 0 -364.5 128.5t-134.5 352.5q0 144 61.5 254t178 169.5t278.5 59.5h284v518h185zM621 784q-155 0 -240.5 -85t-85.5 -238t80 -237.5t227 -84.5q154 0 233.5 96.5t79.5 278.5v270h-294z" />
    <glyph glyph-name="uni053B" unicode="&#x53b;" horiz-adv-x="1427" 
d="M387 791q74 107 176 157.5t238 50.5q226 0 354.5 -136t128.5 -378v-75h-184v61q0 187 -83.5 278t-250.5 91q-179 0 -280 -104.5t-101 -284.5v-451h-184v1462h184v-495q0 -26 -10 -176h12z" />
    <glyph glyph-name="uni053C" unicode="&#x53c;" horiz-adv-x="1063" 
d="M383 160h305q171 0 252.5 -75.5t81.5 -231.5v-140h-180v123q0 81 -38 122.5t-128 41.5h-477v1462h184v-1302z" />
    <glyph glyph-name="uni053D" unicode="&#x53d;" horiz-adv-x="1894" 
d="M842 938h-459v-938h-184v1462h184v-364h643v-699q0 -260 262 -260q125 0 191.5 66.5t66.5 193.5v699h185v-699q0 -191 -120.5 -305t-328.5 -114q-205 0 -322.5 113t-117.5 310v535z" />
    <glyph glyph-name="uni053E" unicode="&#x53e;" horiz-adv-x="1495" 
d="M291 1462v-20q0 -69 35.5 -105.5t113.5 -52.5q115 94 260 146.5t310 52.5q185 0 338 -49l-56 -158q-127 47 -295 47q-170 0 -315 -68q343 -50 513.5 -214.5t170.5 -432.5q0 -297 -163 -462.5t-455 -165.5q-296 0 -457.5 168t-161.5 477q0 298 178 524q-98 32 -147 101
t-49 192v20h180zM524 1114h-15l-15 2q-170 -193 -170 -493q0 -234 107.5 -359t316.5 -125q207 0 315 119t108 350q0 236 -156 358.5t-491 147.5z" />
    <glyph glyph-name="uni053F" unicode="&#x53f;" horiz-adv-x="1432" 
d="M1061 672q-76 -110 -181 -159.5t-253 -49.5q-223 0 -343 134.5t-120 395.5v469h184v-471q0 -368 328 -368q183 0 285 104t102 285v86h184v-1098h-184v496q0 26 10 176h-12z" />
    <glyph glyph-name="uni0540" unicode="&#x540;" horiz-adv-x="1096" 
d="M524 1503l310 -215v-129l-588 -782l829 -254l-45 -164l-977 297v139l604 811l-227 156z" />
    <glyph glyph-name="uni0541" unicode="&#x541;" horiz-adv-x="1313" 
d="M1157 936q0 -344 -178 -612q155 -103 324 -250l-113 -127q-194 164 -316 246q-194 -213 -446 -213q-322 0 -322 274q0 77 42 138.5t121 95.5t184 34q168 0 374 -108q136 223 136 522q0 190 -86.5 288.5t-249.5 98.5q-166 0 -247 -95.5t-81 -275.5v-30h-184v20
q0 253 135.5 397t378.5 144q165 0 284.5 -66t181.5 -189t62 -292zM428 131q175 0 303 150q-165 90 -278 90q-73 0 -115.5 -32t-42.5 -89q0 -119 133 -119z" />
    <glyph glyph-name="uni0542" unicode="&#x542;" horiz-adv-x="1548" 
d="M975 0v950q0 179 -88 276t-260 97q-180 0 -270.5 -97.5t-90.5 -273.5v-30h-184v20q0 255 144 398t401 143q255 0 393.5 -140.5t138.5 -396.5v-786h348v-160h-532z" />
    <glyph glyph-name="uni0543" unicode="&#x543;" horiz-adv-x="1405" 
d="M1245 1362q-294 -114 -495 -289q262 -166 403 -409t141 -531v-133h-1196q2 298 98.5 559t282.5 471q-120 52 -252 88l47 148q178 -42 326 -113q243 223 578 352zM1110 160q-8 253 -130 455.5t-351 338.5q-295 -326 -346 -794h827z" />
    <glyph glyph-name="uni0544" unicode="&#x544;" horiz-adv-x="1700" 
d="M1311 516q0 -250 -151 -393t-419 -143q-265 0 -411 144.5t-146 395.5v942h185v-948q0 -182 96.5 -278.5t286.5 -96.5q181 0 278.5 97t97.5 280v946h531v-159h-348v-787z" />
    <glyph glyph-name="uni0545" unicode="&#x545;" horiz-adv-x="1204" 
d="M1051 1120q0 -138 -87 -230t-247 -118v-8q186 -22 281.5 -112.5t95.5 -235.5q0 -204 -148 -320t-420 -116q-249 0 -403 79v177q87 -45 195.5 -71t207.5 -26q371 0 371 283q0 258 -397 258h-357v160h357q167 0 264.5 71t97.5 197q0 97 -72.5 156t-201.5 59q-98 0 -185 -29
t-182 -94l-92 133q86 70 203.5 110t249.5 40q218 0 343.5 -99.5t125.5 -263.5z" />
    <glyph glyph-name="uni0546" unicode="&#x546;" horiz-adv-x="1454" 
d="M1413 541v-25q0 -249 -136.5 -392.5t-381.5 -143.5q-241 0 -373.5 143.5t-132.5 396.5v783h-348v159h532v-948q0 -182 84.5 -278.5t247.5 -96.5q156 0 240 97t84 280v25h184z" />
    <glyph glyph-name="uni0547" unicode="&#x547;" horiz-adv-x="1278" 
d="M958 1198q-163 0 -312 -83.5t-241 -233t-92 -326.5q0 -206 85 -311t251 -105q163 0 246.5 89.5t83.5 281.5v31h184v-21q0 -251 -135 -395.5t-379 -144.5q-254 0 -392 153.5t-138 429.5q0 224 131 406t366 278l-487 76l25 160l1036 -150l-27 -159l-139 18q-34 6 -66 6z
" />
    <glyph glyph-name="uni0548" unicode="&#x548;" horiz-adv-x="1497" 
d="M184 0v946q0 251 151.5 394t418.5 143q265 0 411 -144.5t146 -396.5v-942h-185v948q0 179 -95.5 277t-287.5 98q-181 0 -278.5 -97t-97.5 -280v-946h-183z" />
    <glyph glyph-name="uni0549" unicode="&#x549;" horiz-adv-x="1278" 
d="M319 264q168 0 318.5 87.5t239 235.5t88.5 320q0 206 -85 311t-251 105q-163 0 -246.5 -89.5t-83.5 -281.5v-30h-184v20q0 253 135.5 397t378.5 144q254 0 392 -152.5t138 -431.5q0 -226 -132.5 -408t-364.5 -276l487 -76l-25 -159l-1036 149l27 160l139 -19q33 -6 65 -6
z" />
    <glyph glyph-name="uni054A" unicode="&#x54a;" horiz-adv-x="1761" 
d="M772 1323q-212 -22 -323 -144t-111 -329v-283l-184 97v180q0 192 87 337.5t250 223.5t386 78q329 0 513.5 -171.5t184.5 -471.5v-840h-184v852q0 207 -110 327t-325 144v-1073l-184 98v975z" />
    <glyph glyph-name="uni054B" unicode="&#x54b;" horiz-adv-x="1300" 
d="M123 963q0 240 144 380t395 140q161 0 279.5 -66t180.5 -188t62 -283q0 -414 -494 -790h295q260 0 260 -250v-111h-184v105q0 100 -127 100h-651v-205h-185v512h185v-151h186q-2 130 -37 209t-113 155q-106 99 -151 200t-45 243zM618 279q191 169 281 328.5t90 342.5
q0 181 -84 277t-243 96q-174 0 -259.5 -94.5t-85.5 -267.5q0 -116 26.5 -183t113.5 -153q73 -75 110.5 -151t50.5 -195z" />
    <glyph glyph-name="uni054C" unicode="&#x54c;" horiz-adv-x="1700" 
d="M184 0v946q0 251 151.5 394t418.5 143q265 0 411 -144.5t146 -396.5v-90h348v-160h-348v-692h-185v948q0 179 -95.5 277t-287.5 98q-183 0 -278.5 -98t-95.5 -279v-946h-185z" />
    <glyph glyph-name="uni054D" unicode="&#x54d;" horiz-adv-x="1497" 
d="M1311 1462v-946q0 -250 -151 -393t-419 -143q-265 0 -411 144.5t-146 395.5v942h185v-948q0 -182 96.5 -278.5t286.5 -96.5q181 0 278.5 97t97.5 280v946h183z" />
    <glyph glyph-name="uni054E" unicode="&#x54e;" horiz-adv-x="1548" 
d="M1507 160v-160h-532v496q0 26 10 176h-12q-76 -111 -174.5 -160t-233.5 -49q-235 0 -359 135t-124 395v60h184v-62q0 -368 314 -368q187 0 291 103t104 286v450h184v-1302h348z" />
    <glyph glyph-name="uni054F" unicode="&#x54f;" horiz-adv-x="1124" 
d="M1028 391q0 -191 -138 -301t-384 -110q-260 0 -402 69v176q93 -40 203 -63t207 -23q164 0 247 63t83 173q0 73 -30 120t-100.5 88t-213.5 93q-205 74 -291 176t-86 258q0 171 128.5 272t338.5 101q219 0 403 -82l-57 -158q-188 78 -350 78q-130 0 -203.5 -56t-73.5 -157
q0 -72 28.5 -119.5t92 -86.5t199.5 -89q163 -60 243 -116.5t118 -130t38 -175.5z" />
    <glyph glyph-name="uni0550" unicode="&#x550;" horiz-adv-x="1343" 
d="M369 0h-185v946q0 252 140 394.5t397 142.5q258 0 399.5 -143.5t141.5 -397.5v-20h-185v14q0 186 -92.5 286.5t-265.5 100.5q-350 0 -350 -377v-946z" />
    <glyph glyph-name="uni0551" unicode="&#x551;" horiz-adv-x="1231" 
d="M348 776q-219 77 -219 324q0 111 56.5 199t162.5 136t246 48q146 0 256 -48t168.5 -136t58.5 -199q0 -131 -63 -210t-187 -114v-8q293 -73 293 -365q0 -198 -150 -310.5t-417 -112.5q-249 0 -403 79v177q87 -45 196 -71t207 -26q195 0 283 71t88 206q0 119 -93.5 187.5
t-257.5 68.5q-100 0 -188 -30t-178 -93l-92 133q88 55 233 86v8zM319 1081q0 -116 74.5 -183t208.5 -67q130 0 207.5 68t77.5 182q0 117 -77.5 183.5t-213.5 66.5q-126 0 -201.5 -65.5t-75.5 -184.5z" />
    <glyph glyph-name="uni0552" unicode="&#x552;" horiz-adv-x="1122" 
d="M358 1016h162q326 0 326 -340q0 -82 15 -127t48.5 -64.5t110.5 -19.5h82v-160h-115q-154 0 -239.5 89t-85.5 249q0 83 -14.5 128.5t-47 65t-108.5 19.5h-134v-856h-184v1462h184v-446z" />
    <glyph glyph-name="uni0553" unicode="&#x553;" horiz-adv-x="1647" 
d="M731 1483h182v-180h68q174 0 300.5 -69.5t192.5 -193.5t66 -282q0 -165 -74 -294t-205 -194t-309 -65h-39v-225h-182v225h-43q-178 0 -308.5 66.5t-203 197t-72.5 289.5q0 155 68 279.5t195 195t299 70.5h65v180zM913 356h25q197 0 306.5 107.5t109.5 296.5
q0 180 -101.5 283.5t-283.5 103.5h-56v-791zM731 1147h-55q-181 0 -283 -104.5t-102 -282.5q0 -189 109 -296.5t309 -107.5h22v791z" />
    <glyph glyph-name="uni0554" unicode="&#x554;" horiz-adv-x="1544" 
d="M625 358v-358h-185v358h-57q-148 0 -229.5 85t-81.5 241h180q0 -87 35 -126.5t116 -39.5h37v428q0 251 120.5 394t330.5 143q214 0 331 -108.5t117 -301.5q0 -191 -118 -294t-332 -103h-264v-158h516q146 0 228.5 -87t82.5 -245h-180q0 92 -40.5 132t-135.5 40h-471z
M625 836h245q141 0 208 58t67 179q0 250 -262 250q-124 0 -191 -99t-67 -274v-114z" />
    <glyph glyph-name="uni0555" unicode="&#x555;" horiz-adv-x="1599" 
d="M1475 733q0 -351 -177.5 -552t-496.5 -201q-323 0 -499.5 197.5t-176.5 557.5q0 357 175.5 553.5t502.5 196.5q318 0 495 -199.5t177 -552.5zM319 733q0 -290 123 -442t359 -152q235 0 357 150t122 444q0 293 -121 441.5t-356 148.5q-238 0 -361 -150.5t-123 -439.5z" />
    <glyph glyph-name="uni0556" unicode="&#x556;" horiz-adv-x="1335" 
d="M1243 395q0 -127 -70.5 -221t-205.5 -144t-328 -50q-337 0 -547 79v179q153 -51 261.5 -73t205.5 -26v537q-465 57 -465 430q0 165 124 260.5t341 95.5h184v-635q253 -34 376.5 -139.5t123.5 -292.5zM1059 379q0 126 -78 189.5t-238 86.5v-516q160 13 238 78t78 162z
M279 1102q0 -85 27.5 -131.5t87.5 -76t165 -46.5v455q-140 0 -210 -49t-70 -152z" />
    <glyph glyph-name="uni0559" unicode="&#x559;" horiz-adv-x="440" 
d="M360 817q-129 0 -207.5 85t-78.5 222q0 124 53 206.5t184 154.5l56 -82q-57 -32 -95.5 -93t-38.5 -149q0 -70 36.5 -115t90.5 -45v-184z" />
    <glyph glyph-name="uni055A" unicode="&#x55a;" horiz-adv-x="440" 
d="M80 1485q130 0 208.5 -86.5t78.5 -220.5q0 -126 -54.5 -207.5t-183.5 -153.5l-55 82q57 32 95 93t38 149q0 70 -36 114.5t-91 44.5v185z" />
    <glyph glyph-name="uni055B" unicode="&#x55b;" horiz-adv-x="471" 
d="M371 1462l18 -30q-56 -207 -178 -488h-131q31 118 61.5 274t42.5 244h187z" />
    <glyph glyph-name="uni055C" unicode="&#x55c;" horiz-adv-x="610" 
d="M53 1014q0 51 37 98.5t148 118.5q85 57 110 86.5t25 58.5q0 31 -8 86h145q22 -23 34.5 -59t12.5 -70q0 -55 -38.5 -105t-149.5 -118q-76 -47 -103.5 -77t-27.5 -60q0 -35 8 -86h-146q-21 23 -34 59t-13 68z" />
    <glyph glyph-name="uni055D" unicode="&#x55d;" horiz-adv-x="471" 
d="M287 1462q13 -97 43 -248.5t61 -269.5h-131q-122 281 -178 488l18 30h187z" />
    <glyph glyph-name="uni055E" unicode="&#x55e;" horiz-adv-x="774" 
d="M436 1044q-81 0 -137 29l39 141q49 -22 94 -22q44 0 69 28.5t25 82.5q0 51 -27.5 78.5t-72.5 27.5q-53 0 -84.5 -26.5t-55 -85t-43.5 -158t-38 -258.5l-158 22q32 251 76 390t112.5 201t188.5 62q126 0 198 -67.5t72 -188.5q0 -117 -70.5 -186.5t-187.5 -69.5z" />
    <glyph glyph-name="uni055F" unicode="&#x55f;" horiz-adv-x="819" 
d="M238 1321q0 -55 32 -74.5t90 -19.5h426v-148h-444q-272 0 -272 240q0 104 74 167.5t202 63.5q74 0 164 -32l-43 -144q-66 29 -113 29q-59 0 -87.5 -23.5t-28.5 -58.5z" />
    <glyph glyph-name="uni0561" unicode="&#x561;" horiz-adv-x="1915" 
d="M344 1098v-707q0 -260 223 -260q153 0 225 89t72 272v606h178v-707q0 -130 55 -195t171 -65q152 0 222.5 93.5t70.5 303.5v570h180v-1098h-146l-26 150h-10q-47 -80 -132.5 -125t-191.5 -45q-258 0 -336 184h-10q-53 -88 -144.5 -136t-207.5 -48q-186 0 -278.5 95.5
t-92.5 307.5v715h178z" />
    <glyph glyph-name="uni0562" unicode="&#x562;" 
d="M1100 152v-152h-744l-2 -492h-180v1590h145l27 -150h10q51 81 143 125.5t203 44.5q202 0 300 -98t98 -305v-305h-178v292q0 134 -59.5 199.5t-186.5 65.5q-169 0 -245.5 -93.5t-76.5 -304.5v-417h746z" />
    <glyph glyph-name="uni0563" unicode="&#x563;" horiz-adv-x="1362" 
d="M592 0q-235 0 -357 143.5t-122 413.5q0 266 118.5 413.5t333.5 147.5q225 0 342 -170h8l27 150h143v-946h236v-152h-236v-492h-180v492h-313zM905 152v393q0 225 -74.5 324.5t-240.5 99.5q-142 0 -216.5 -107t-74.5 -309q0 -195 74.5 -298t240.5 -103h291z" />
    <glyph glyph-name="uni0564" unicode="&#x564;" horiz-adv-x="1376" 
d="M922 -492v1194q0 134 -59.5 199.5t-186.5 65.5q-169 0 -245.5 -93.5t-76.5 -304.5v-569h-180v1098h145l27 -150h10q51 81 143 125.5t203 44.5q202 0 300 -98t98 -305v-563h235v-152h-235v-492h-178z" />
    <glyph glyph-name="uni0565" unicode="&#x565;" 
d="M344 1556v-458h762v-152h-762v-555q0 -133 59.5 -197.5t184.5 -64.5q169 0 246 94t77 303v162h181v-688h-148l-26 145h-9q-49 -79 -139 -122t-209 -43q-198 0 -298.5 95t-100.5 304v1177h182z" />
    <glyph glyph-name="uni0566" unicode="&#x566;" horiz-adv-x="1300" 
d="M594 129q166 0 237.5 92t73.5 287v37q0 225 -74.5 324.5t-240.5 99.5q-141 0 -216 -111t-75 -315q0 -201 74.5 -307.5t220.5 -106.5zM1321 -340v-152h-416v469q0 110 10 170h-12q-115 -167 -344 -167q-212 0 -329 150t-117 417q0 268 119.5 419.5t332.5 151.5
q225 0 342 -170h8l27 150h143v-1438h236z" />
    <glyph glyph-name="uni0567" unicode="&#x567;" horiz-adv-x="1026" 
d="M174 1556h180v-458h566v-152h-566v-794h281q305 0 305 -322v-92h-180v72q0 105 -40.5 147.5t-139.5 42.5h-406v1556z" />
    <glyph glyph-name="uni0568" unicode="&#x568;" 
d="M1100 -340v-152h-926v1590h145l27 -150h10q51 81 143 125.5t203 44.5q202 0 300 -98t98 -305v-715h-178v702q0 134 -59.5 199.5t-186.5 65.5q-169 0 -245.5 -93.5t-76.5 -304.5v-909h746z" />
    <glyph glyph-name="uni0569" unicode="&#x569;" horiz-adv-x="1337" 
d="M856 729l86 -4q-28 112 -96.5 177t-181.5 65q-162 0 -236 -91t-74 -290v-1078h-180v1590h148l24 -150h8q64 90 148 130t194 40q183 0 297.5 -111.5t143.5 -320.5q97 -27 190 -68l-49 -137q-64 28 -131 47q-3 -264 -87.5 -406t-250.5 -142q-143 0 -223 93.5t-80 268.5
q0 110 43 199t122.5 138.5t184.5 49.5zM809 131q152 0 152 422v18q-61 7 -99 7q-82 0 -129 -62.5t-47 -167.5q0 -217 123 -217z" />
    <glyph glyph-name="uni056A" unicode="&#x56a;" horiz-adv-x="1364" 
d="M1087 946v-395q0 -271 -130.5 -421t-358.5 -150q-144 0 -254.5 69t-170.5 198t-60 300q0 271 132 411t388 140h274v458h180v-458h236v-152h-236zM907 946h-268q-187 0 -263.5 -93.5t-76.5 -309.5q0 -209 72 -310.5t233 -101.5t232 105.5t71 314.5v395z" />
    <glyph glyph-name="uni056B" unicode="&#x56b;" 
d="M922 0v702q0 134 -59.5 199.5t-186.5 65.5q-167 0 -244.5 -93t-77.5 -307v-1059h-180v2048h180v-456q0 -90 -10 -154h12q49 80 139 125t203 45q200 0 301 -95.5t101 -305.5v-715h-178z" />
    <glyph glyph-name="uni056C" unicode="&#x56c;" horiz-adv-x="551" 
d="M174 1098h180v-1438h238v-152h-418v1590z" />
    <glyph glyph-name="uni056D" unicode="&#x56d;" horiz-adv-x="1927" 
d="M879 702q0 265 -232 265q-151 0 -222 -93.5t-71 -306.5v-1059h-180v2048h180v-456q0 -90 -10 -154h12q50 85 135.5 127.5t184.5 42.5q186 0 284.5 -95.5t98.5 -305.5v-330q0 -256 262 -256q128 0 195 66t67 190v713h180v-713q0 -189 -118.5 -297t-327.5 -108t-323.5 107
t-114.5 302v313z" />
    <glyph glyph-name="uni056E" unicode="&#x56e;" horiz-adv-x="1276" 
d="M113 522q0 176 75.5 307.5t216 204.5t324.5 80q-173 212 -461 324l60 139q412 -141 624 -471q185 -19 332 -78l-49 -145q-80 32 -195 55q88 -211 88 -451q0 -241 -135.5 -374t-376.5 -133q-242 0 -372.5 142t-130.5 400zM942 489q0 260 -113 474l-30 2h-31
q-228 0 -348.5 -115t-120.5 -328q0 -391 317 -391q158 0 242 91t84 267z" />
    <glyph glyph-name="uni056F" unicode="&#x56f;" 
d="M344 1556v-1161q0 -133 59.5 -198.5t186.5 -65.5q167 0 244 92t77 307v568h181v-1590h-181v490q0 84 11 154h-13q-50 -81 -139.5 -125.5t-202.5 -44.5q-207 0 -304 98.5t-97 302.5v1173h178z" />
    <glyph glyph-name="uni0570" unicode="&#x570;" 
d="M922 0v702q0 134 -59.5 199.5t-186.5 65.5q-167 0 -244.5 -93t-77.5 -307v-567h-180v1556h180v-456q0 -90 -10 -154h12q49 80 139 125t203 45q200 0 301 -95.5t101 -305.5v-715h-178z" />
    <glyph glyph-name="uni0571" unicode="&#x571;" horiz-adv-x="1249" 
d="M113 471q0 142 39 233t132.5 174.5t278.5 188.5q89 49 141 105.5t52 107.5q0 92 -92 186l129 111q60 -51 101.5 -132.5t41.5 -154.5q0 -74 -33 -133t-110 -123q141 -81 216.5 -220t75.5 -316v-498h-145l-27 147h-8q-115 -167 -342 -167q-213 0 -331.5 130.5t-118.5 360.5
zM299 475q0 -167 76 -256.5t217 -89.5q167 0 241 87.5t74 289.5q0 149 -66 253t-192 177q-146 -81 -216.5 -144.5t-102 -137.5t-31.5 -179z" />
    <glyph glyph-name="uni0572" unicode="&#x572;" horiz-adv-x="1315" 
d="M922 -492v1194q0 134 -59.5 199.5t-186.5 65.5q-169 0 -245.5 -93.5t-76.5 -304.5v-569h-180v1098h145l27 -150h10q51 81 143 125.5t203 44.5q202 0 300 -98t98 -305v-1055h235v-152h-413z" />
    <glyph glyph-name="uni0573" unicode="&#x573;" horiz-adv-x="1319" 
d="M223 946h-192v152h192v41q0 211 119 319.5t352 108.5q102 0 199.5 -19t161.5 -45l-47 -141q-108 33 -179.5 45t-142.5 12q-145 0 -214 -66.5t-69 -213.5v-41h351q198 0 298.5 -95.5t100.5 -304.5v-698h-147l-27 145h-8q-49 -77 -139.5 -121t-208.5 -44q-199 0 -299.5 95
t-100.5 304v567zM403 946v-555q0 -133 60.5 -197.5t185.5 -64.5q170 0 247 93.5t77 303.5v160q0 133 -60.5 196.5t-185.5 63.5h-324z" />
    <glyph glyph-name="uni0574" unicode="&#x574;" 
d="M911 983q-200 66 -200 274q0 142 83 226t232 84q59 0 125 -19l-39 -155q-44 14 -80 14q-141 0 -141 -147q0 -162 178 -162h23v-1098h-148l-26 145h-9q-49 -79 -139 -122t-209 -43q-198 0 -298.5 95t-100.5 304v719h182v-707q0 -133 59.5 -197.5t184.5 -64.5q169 0 246 94
t77 303v457z" />
    <glyph glyph-name="uni0575" unicode="&#x575;" horiz-adv-x="528" 
d="M45 -492q-94 0 -158 25v145q69 -20 136 -20q78 0 114.5 42.5t36.5 129.5v1268h180v-1262q0 -164 -78.5 -246t-230.5 -82z" />
    <glyph glyph-name="uni0576" unicode="&#x576;" horiz-adv-x="1307" 
d="M383 391q0 -133 60.5 -197.5t185.5 -64.5q169 0 246 94t77 303v572h181v-1098h-148l-27 145h-8q-49 -79 -139 -122t-209 -43q-198 0 -298.5 95t-100.5 304v1026h-203v151h387z" />
    <glyph glyph-name="uni0577" unicode="&#x577;" horiz-adv-x="1010" 
d="M870 -492h-510q-148 0 -229.5 62.5t-81.5 171.5q0 87 63 178t224 232q221 195 299 314t78 251q0 126 -67.5 198t-188.5 72q-74 0 -141 -14t-179 -62l-45 148q177 80 367 80q210 0 325 -111.5t115 -310.5q0 -116 -36.5 -207t-123 -196t-266.5 -263q-131 -114 -184 -180
t-53 -127q0 -45 43 -64.5t141 -19.5h450v-152z" />
    <glyph glyph-name="uni0578" unicode="&#x578;" 
d="M920 0v702q0 134 -58.5 199.5t-185.5 65.5q-169 0 -245.5 -93.5t-76.5 -304.5v-569h-180v1098h145l27 -150h10q51 81 143 125.5t203 44.5q202 0 300 -98t98 -305v-715h-180z" />
    <glyph glyph-name="uni0579" unicode="&#x579;" horiz-adv-x="938" 
d="M598 1028l-199 -125q-49 -35 -49 -65q0 -25 43 -80l318 -398q37 -47 53 -84t16 -81q0 -60 -40 -113t-109 -90l-328 -180q-42 -23 -57 -42.5t-15 -45.5q0 -29 36 -46.5t98 -17.5h542v-152h-565q-138 0 -214.5 56t-76.5 153q0 69 46 124.5t151 115.5l289 162q63 35 63 88
q0 20 -37 65l-303 381q-43 54 -66.5 98t-23.5 95q0 52 34.5 96t110.5 92l193 121z" />
    <glyph glyph-name="uni057A" unicode="&#x57a;" horiz-adv-x="1915" 
d="M1561 -492v480q0 57 9 128l3 34h-14q-47 -80 -132.5 -125t-191.5 -45q-258 0 -336 184h-10q-53 -88 -144.5 -136t-207.5 -48q-186 0 -278.5 95.5t-92.5 307.5v715h178v-707q0 -260 223 -260q153 0 225 89t72 272v606h178v-707q0 -130 55 -195t171 -65q152 0 222.5 93.5
t70.5 303.5v570h180v-1590h-180z" />
    <glyph glyph-name="uni057B" unicode="&#x57b;" horiz-adv-x="1262" 
d="M236 -236q0 162 217 310q-32 61 -127 153q-100 96 -136.5 149.5t-57.5 117t-21 141.5q0 222 138.5 352.5t375.5 130.5q246 0 386 -133t140 -360q0 -178 -99.5 -309.5t-328.5 -264.5q-130 -75 -190.5 -119.5t-86.5 -82t-26 -87.5q0 -57 41 -79.5t133 -22.5h502v-152h-566
q-142 0 -218 66t-76 190zM295 612q0 -55 16.5 -99.5t45 -83.5t121.5 -129q89 -86 116 -134q192 108 282.5 215.5t90.5 234.5q0 175 -88.5 263t-253.5 88q-330 0 -330 -355z" />
    <glyph glyph-name="uni057C" unicode="&#x57c;" horiz-adv-x="1376" 
d="M922 0v702q0 134 -59.5 199.5t-186.5 65.5q-169 0 -245.5 -93.5t-76.5 -304.5v-569h-180v1098h145l27 -150h10q51 81 143 125.5t203 44.5q202 0 300 -98t98 -305v-563h235v-152h-413z" />
    <glyph glyph-name="uni057D" unicode="&#x57d;" 
d="M344 1098v-707q0 -133 59.5 -197.5t184.5 -64.5q169 0 246 94t77 303v572h181v-1098h-148l-26 145h-9q-49 -79 -139 -122t-209 -43q-198 0 -298.5 95t-100.5 304v719h182z" />
    <glyph glyph-name="uni057E" unicode="&#x57e;" horiz-adv-x="1305" 
d="M911 -2q0 84 11 154h-13q-50 -81 -139.5 -125.5t-202.5 -44.5q-207 0 -304 98.5t-97 302.5v715h178v-703q0 -133 59.5 -198.5t186.5 -65.5q167 0 244 92t77 307v1026h181l-2 -1896h235v-152h-414v490z" />
    <glyph glyph-name="uni057F" unicode="&#x57f;" horiz-adv-x="1909" 
d="M897 0l-27 145h-8q-45 -77 -129 -121t-196 -44q-191 0 -282 98t-91 301v719h180v-707q0 -262 225 -262q153 0 224 93.5t71 303.5v572h146l26 -150h11q46 80 133 125t194 45q187 0 279 -98t92 -305v-715h-180v702q0 134 -54 199.5t-170 65.5q-154 0 -225.5 -95.5
t-71.5 -302.5v-569h-147z" />
    <glyph glyph-name="uni0580" unicode="&#x580;" 
d="M922 0v702q0 134 -59.5 199.5t-186.5 65.5q-169 0 -245.5 -93.5t-76.5 -304.5v-1061h-180v1590h145l27 -150h10q51 81 143 125.5t203 44.5q202 0 300 -98t98 -305v-715h-178z" />
    <glyph glyph-name="uni0581" unicode="&#x581;" horiz-adv-x="1260" 
d="M590 127q166 0 241.5 89.5t75.5 287.5v43q0 220 -76 320t-245 100q-139 0 -214 -109.5t-75 -312.5q0 -204 73.5 -311t219.5 -107zM905 10l6 135h-8q-111 -165 -340 -165q-213 0 -332.5 148.5t-119.5 418.5q0 267 120.5 419t329.5 152q223 0 344 -166h10l25 146h143v-1116
q0 -236 -119.5 -355t-371.5 -119q-240 0 -395 70v166q160 -86 405 -86q146 0 224.5 73t78.5 236v43z" />
    <glyph glyph-name="uni0582" unicode="&#x582;" horiz-adv-x="623" 
d="M174 1098h180v-946h238v-152h-418v1098z" />
    <glyph glyph-name="uni0583" unicode="&#x583;" horiz-adv-x="1909" 
d="M864 -492v484q0 89 6 153h-8q-45 -77 -129 -121t-196 -44q-191 0 -282 98t-91 301v719h180v-707q0 -262 225 -262q153 0 224 93.5t71 303.5v1030h180v-454q0 -90 -10 -154h13q46 80 133 125t194 45q187 0 279 -98t92 -305v-715h-180v702q0 134 -54 199.5t-170 65.5
q-154 0 -225.5 -95.5t-71.5 -302.5v-1061h-180z" />
    <glyph glyph-name="uni0584" unicode="&#x584;" horiz-adv-x="1260" 
d="M694 0q-220 0 -340 160h-12q12 -108 12 -180v-136h742v-151h-742v-185h-180v185h-174v151h174v1254h148l24 -150h8q64 90 148 130t194 40q218 0 334.5 -145.5t116.5 -411.5q0 -267 -118.5 -414t-334.5 -147zM664 967q-159 0 -232 -88t-78 -293v-15q0 -224 74.5 -322.5
t239.5 -98.5q140 0 216.5 108.5t76.5 304.5t-75.5 300t-221.5 104z" />
    <glyph glyph-name="uni0585" unicode="&#x585;" horiz-adv-x="1239" 
d="M1128 551q0 -269 -136 -420t-376 -151q-149 0 -264 69.5t-177 199.5t-62 302q0 266 134.5 416.5t375.5 150.5q232 0 368.5 -152.5t136.5 -414.5zM299 551q0 -207 81.5 -314.5t240.5 -107.5q157 0 239 107.5t82 314.5t-82.5 311.5t-241.5 104.5q-319 0 -319 -416z" />
    <glyph glyph-name="uni0586" unicode="&#x586;" horiz-adv-x="1233" 
d="M1135 381q0 -163 -122 -273t-315 -124v-476h-180v474q-294 13 -426 79v168q82 -36 197 -62t229 -34v584q-210 65 -312 174t-102 272q0 175 142 284t375 109h77v-716q225 -71 331 -182.5t106 -276.5zM948 383q0 79 -24 126.5t-77.5 85t-148.5 71.5v-531q125 16 187.5 82
t62.5 166zM287 1165q0 -80 22.5 -125.5t73 -81.5t135.5 -67v506q-109 -14 -170 -74.5t-61 -157.5z" />
    <glyph glyph-name="uni0587" unicode="&#x587;" horiz-adv-x="1366" 
d="M922 152h-13q-50 -81 -139.5 -125.5t-202.5 -44.5q-207 0 -304 98.5t-97 302.5v1173h178v-1161q0 -133 59.5 -198.5t186.5 -65.5q167 0 244 92t77 307v568h181l-2 -946h235v-152h-381z" />
    <glyph glyph-name="uni0589" unicode="&#x589;" horiz-adv-x="549" 
d="M147 111q0 66 32.5 101.5t92.5 35.5q61 0 95 -36t34 -101t-34 -102.5t-95 -37.5q-59 0 -92 37t-33 103zM147 987q0 66 31.5 102.5t93.5 36.5q63 0 96 -36t33 -103q0 -64 -34 -101.5t-95 -37.5q-52 0 -88.5 33t-36.5 106z" />
    <glyph glyph-name="uni058A" unicode="&#x58a;" horiz-adv-x="883" 
d="M287 692q0 -60 39 -97.5t120 -37.5q140 0 320 39l37 -84q-76 -47 -185.5 -76.5t-207.5 -29.5q-160 0 -234 69.5t-74 216.5h185z" />
    <glyph glyph-name="uni058F" unicode="&#x58f;" horiz-adv-x="1171" 
d="M258 932h336v135q0 132 -37 197t-129 65q-41 0 -76 -8t-66.5 -24t-62 -39t-61.5 -54l-96 121q37 33 78 62t87 50t97 33.5t108 12.5q82 0 145.5 -23.5t106.5 -72.5t65.5 -125.5t22.5 -182.5v-147h264v-133h-264v-162h264v-133h-264v-504h-182v504h-336v133h336v162h-336
v133z" />
    </font>
</defs>
</svg>
