<?xml version="1.0" standalone="no"?>
<!DOCTYPE svg PUBLIC "-//W3C//DTD SVG 1.1//EN" "http://www.w3.org/Graphics/SVG/1.1/DTD/svg11.dtd" >
<svg xmlns="http://www.w3.org/2000/svg" xmlns:xlink="http://www.w3.org/1999/xlink" version="1.1">
<metadata>
Created by FontForge 20150102 at Mon Jan 12 13:56:50 2015
 By uniteet7
Copyright 2012 Google Inc. All Rights Reserved.
</metadata>
<defs>
<font id="NotoSansGeorgianRegular" horiz-adv-x="1239" >
  <font-face 
    font-family="NotoSansGeorgianRegular"
    font-weight="400"
    font-stretch="normal"
    units-per-em="2048"
    panose-1="2 11 5 2 4 5 4 2 2 4"
    ascent="1638"
    descent="-410"
    bbox="-111 -492 2171 1868"
    underline-thickness="102"
    underline-position="-103"
    unicode-range="U+000D-FEFF"
  />
<missing-glyph horiz-adv-x="1229" 
d="M193 1462h841v-1462h-841v1462zM297 104h633v1254h-633v-1254z" />
    <glyph glyph-name=".notdef" horiz-adv-x="1229" 
d="M193 1462h841v-1462h-841v1462zM297 104h633v1254h-633v-1254z" />
    <glyph glyph-name="glyph1" horiz-adv-x="0" 
 />
    <glyph glyph-name="glyph1" horiz-adv-x="0" 
 />
    <glyph glyph-name="uni000D" unicode="&#xd;" horiz-adv-x="1044" 
 />
    <glyph glyph-name="space" unicode=" " horiz-adv-x="532" 
 />
    <glyph glyph-name="space" unicode="&#xa0;" horiz-adv-x="532" 
 />
    <glyph glyph-name="uni10A0" unicode="&#x10a0;" horiz-adv-x="1599" 
d="M125 715q0 201 86.5 351t247.5 237h-334v159h1298v-159h-508q-298 0 -447 -148t-149 -438q0 -281 124.5 -429.5t357.5 -148.5q235 0 357 150t122 444h195q0 -351 -177.5 -552t-496.5 -201q-323 0 -499.5 193t-176.5 542z" />
    <glyph glyph-name="uni10A1" unicode="&#x10a1;" horiz-adv-x="1393" 
d="M117 963q0 257 151 499h215q-73 -84 -122.5 -222.5t-49.5 -278.5q0 -171 74.5 -266t230.5 -95q202 0 297 103.5t95 334.5v424h184v-1462h-186v496q0 26 10 143h-10q-60 -90 -174 -144.5t-244 -54.5q-225 0 -348 136.5t-123 386.5z" />
    <glyph glyph-name="uni10A2" unicode="&#x10a2;" horiz-adv-x="1546" 
d="M938 946q0 189 -84.5 283t-247.5 94q-166 0 -253 -95t-87 -280v-26h-184v20q0 257 137.5 399t388.5 142t382.5 -139.5t131.5 -397.5v-786h383v-396h-176v236h-391v946z" />
    <glyph glyph-name="uni10A3" unicode="&#x10a3;" horiz-adv-x="1563" 
d="M1243 578q0 211 -120 324.5t-343 113.5q-221 0 -341 -112t-120 -326q0 -213 119 -325t340 -112q223 0 344 111.5t121 325.5zM874 1171q268 -22 416 -179.5t148 -416.5q0 -279 -173 -437t-487 -158q-305 0 -479 160t-174 435q0 256 151 414.5t414 181.5v129h-497v162h1177
v-162h-496v-129z" />
    <glyph glyph-name="uni10A4" unicode="&#x10a4;" horiz-adv-x="1307" 
d="M938 946q0 189 -85.5 283t-246.5 94q-166 0 -253 -95t-87 -280v-26h-184v20q0 257 137.5 399t388.5 142q247 0 380.5 -139t133.5 -398v-946h-184v946z" />
    <glyph glyph-name="uni10A5" unicode="&#x10a5;" horiz-adv-x="1546" 
d="M1122 0h-184v946q0 377 -332 377q-166 0 -253 -95t-87 -280v-26h-184v20q0 257 137.5 399t386.5 142q248 0 382 -139.5t134 -397.5v-92h383v-395h-176v235h-207v-694z" />
    <glyph glyph-name="uni10A6" unicode="&#x10a6;" horiz-adv-x="1526" 
d="M850 139q174 0 271.5 108t97.5 304q0 194 -91.5 300.5t-255.5 106.5q-178 0 -274 -110.5t-96 -300.5q0 -191 91.5 -299.5t256.5 -108.5zM20 1303v159h482v-377q0 -26 -10 -176h12q79 114 172.5 161.5t224.5 47.5q155 0 270 -71t176.5 -200t61.5 -296q0 -172 -66 -301.5
t-192 -199.5t-299 -70q-251 0 -393 152.5t-142 414.5v756h-297z" />
    <glyph glyph-name="uni10A7" unicode="&#x10a7;" horiz-adv-x="1720" 
d="M1296 0h-450q-344 0 -532.5 189.5t-188.5 527.5q0 362 197.5 553.5t566.5 191.5h407v-608h383v-395h-176v235h-207v-694zM319 723q0 -280 139 -422.5t414 -142.5h240v1147h-199q-296 0 -445 -146.5t-149 -435.5z" />
    <glyph glyph-name="uni10A8" unicode="&#x10a8;" horiz-adv-x="997" 
d="M797 0h-185v1303h-592v159h777v-1462z" />
    <glyph glyph-name="uni10A9" unicode="&#x10a9;" horiz-adv-x="1419" 
d="M348 741q0 -176 92 -276t258 -100q177 0 275 100.5t98 275.5q0 179 -92.5 278t-257.5 99q-177 0 -275 -100.5t-98 -276.5zM164 1462h184v-217q0 -26 -10 -176h12q79 114 173 161.5t225 47.5q155 0 270.5 -67.5t176 -190.5t60.5 -279v-741h-184v238q0 26 10 176h-12
q-79 -114 -173 -161.5t-224 -47.5q-155 0 -270.5 67t-176.5 188.5t-61 280.5v721z" />
    <glyph glyph-name="uni10AA" unicode="&#x10aa;" horiz-adv-x="1632" 
d="M956 139q174 0 271.5 108t97.5 304q0 194 -91 300.5t-255 106.5q-177 0 -274 -109.5t-97 -301.5q0 -191 91 -299.5t257 -108.5zM608 1085q0 -26 -10 -176h12q79 114 173 161.5t225 47.5q155 0 270 -71t176.5 -201.5t61.5 -294.5q0 -172 -66 -301t-192 -199.5t-300 -70.5
q-249 0 -391.5 152t-142.5 415v756h-207v-236h-176v395h567v-377z" />
    <glyph glyph-name="uni10AB" unicode="&#x10ab;" horiz-adv-x="1524" 
d="M221 1303v159h879v-444h383v-395h-176v235h-207v-289q0 -275 -128 -432t-360 -157q-233 0 -366 139.5t-133 378.5q0 155 61.5 273t178.5 182.5t278 64.5h284v285h-694zM621 858q-155 0 -240.5 -95.5t-85.5 -264.5q0 -171 80.5 -265t226.5 -94q157 0 235 110t78 308v301
h-294z" />
    <glyph glyph-name="uni10AC" unicode="&#x10ac;" horiz-adv-x="1442" 
d="M201 1462h1005v-159h-821v-336q0 -26 -10 -176h12q74 107 176 157.5t238 50.5q233 0 358 -133t125 -397v-469h-184v471q0 187 -83.5 278t-250.5 91q-179 0 -280 -104.5t-101 -284.5v-451h-184v1462z" />
    <glyph glyph-name="uni10AD" unicode="&#x10ad;" horiz-adv-x="1599" 
d="M1475 733q0 -399 -224 -600q-37 -32 -54 -68t-17 -100q0 -71 40 -112t117 -41q58 0 86 10v-162q-48 -8 -102 -8q-145 0 -233.5 76.5t-88.5 201.5q0 29 9 74q-105 -24 -207 -24q-323 0 -499.5 197.5t-176.5 557.5q0 357 175.5 553.5t502.5 196.5q318 0 495 -199.5
t177 -552.5zM319 733q0 -290 123 -442t359 -152q235 0 357 150t122 444q0 293 -121 441.5t-356 148.5q-238 0 -361 -150.5t-123 -439.5z" />
    <glyph glyph-name="uni10AE" unicode="&#x10ae;" horiz-adv-x="1659" 
d="M348 1303h-307v159h489v-946q0 -180 97 -278.5t280 -98.5q192 0 287.5 98t95.5 277v948h185v-942q0 -252 -146 -396t-411 -144q-268 0 -419 142.5t-151 393.5v787z" />
    <glyph glyph-name="uni10AF" unicode="&#x10af;" horiz-adv-x="1513" 
d="M238 963q0 167 69 340h-266v159h563q-73 -84 -122.5 -222.5t-49.5 -278.5q0 -361 313 -361q197 0 290 104.5t93 333.5v424h185v-1462h-187v496q0 42 4 75t7 68h-11q-60 -89 -173 -144t-244 -55q-225 0 -348 136.5t-123 386.5z" />
    <glyph glyph-name="uni10B0" unicode="&#x10b0;" horiz-adv-x="1546" 
d="M1122 516q0 -254 -134.5 -395t-379.5 -141q-251 0 -388.5 142t-137.5 398v21h184v-27q0 -179 85 -277t255 -98q332 0 332 377v946h184v-608h383v-395h-176v235h-207v-178z" />
    <glyph glyph-name="uni10B1" unicode="&#x10b1;" horiz-adv-x="1307" 
d="M369 516q0 -377 331 -377q171 0 255.5 98t84.5 277v27h185v-21q0 -253 -137 -396.5t-390 -143.5q-250 0 -382 137t-132 399v946h185v-946z" />
    <glyph glyph-name="uni10B2" unicode="&#x10b2;" 
d="M1077 160v-160h-878v1462h387q549 0 549 -430q0 -224 -153 -343.5t-431 -119.5h-168v-409h694zM383 727h147q218 0 316 70.5t98 226.5q0 141 -91 211t-284 70h-186v-578z" />
    <glyph glyph-name="uni10B3" unicode="&#x10b3;" horiz-adv-x="1599" 
d="M1475 733q0 -286 -123 -479q86 -31 135 -105t49 -184q0 -141 -92 -227t-246 -86q-35 0 -86 8v160q37 -8 86 -8q77 0 117.5 41t40.5 112q0 59 -31 100.5t-90 55.5q-174 -141 -434 -141q-323 0 -499.5 197.5t-176.5 557.5q0 357 175.5 553.5t502.5 196.5q318 0 495 -199.5
t177 -552.5zM319 733q0 -290 123 -442t359 -152q235 0 357 150t122 444q0 293 -121 441.5t-356 148.5q-238 0 -361 -150.5t-123 -439.5z" />
    <glyph glyph-name="uni10B4" unicode="&#x10b4;" horiz-adv-x="1645" 
d="M827 1483q351 0 532 -142.5t181 -422.5q0 -170 -77.5 -297t-217 -191.5t-332.5 -64.5v-365h-182v365q-192 0 -331 64.5t-217.5 193t-78.5 295.5q0 274 187.5 419.5t535.5 145.5zM913 516q210 0 325.5 105t115.5 299q0 191 -114.5 296.5t-326.5 110.5v-811zM731 1327
q-211 -5 -325.5 -112t-114.5 -295q0 -194 114 -299t326 -105v811z" />
    <glyph glyph-name="uni10B5" unicode="&#x10b5;" horiz-adv-x="1260" 
d="M539 1053v409h184v-409h496v-396h-177v236h-319v-893h-184v893h-498v395h176v-235h322z" />
    <glyph glyph-name="uni10B6" unicode="&#x10b6;" horiz-adv-x="1497" 
d="M184 0v946q0 251 151.5 394t418.5 143q265 0 411 -144.5t146 -396.5v-942h-185v948q0 182 -96.5 278.5t-286.5 96.5q-181 0 -278.5 -97t-97.5 -280v-946h-183z" />
    <glyph glyph-name="uni10B7" unicode="&#x10b7;" horiz-adv-x="1448" 
d="M1061 672q-142 -209 -414 -209q-233 0 -358 133.5t-125 396.5v469h184v-471q0 -191 80 -279.5t254 -88.5q177 0 279 102.5t102 286.5v450h184v-1462h-184v496q0 26 10 176h-12z" />
    <glyph glyph-name="uni10B8" unicode="&#x10b8;" horiz-adv-x="1454" 
d="M1268 516q0 -253 -142 -394.5t-393 -141.5q-262 0 -405.5 143.5t-143.5 396.5v21h185v-27q0 -179 90 -277t272 -98q171 0 261.5 97t90.5 280v123q0 45 4 88t7 88h-13q-75 -109 -177 -159t-236 -50q-229 0 -356.5 139.5t-127.5 391.5v325h185v-327q0 -369 333 -369
q179 0 280 104.5t101 284.5v307h185v-946z" />
    <glyph glyph-name="uni10B9" unicode="&#x10b9;" horiz-adv-x="1442" 
d="M387 791q74 107 176 157.5t238 50.5q234 0 358.5 -136.5t124.5 -393.5v-469h-184v471q0 190 -80.5 279.5t-253.5 89.5q-179 0 -280 -104.5t-101 -284.5v-451h-184v1462h184v-495q0 -26 -10 -176h12z" />
    <glyph glyph-name="uni10BA" unicode="&#x10ba;" horiz-adv-x="1442" 
d="M825 1321q-236 0 -371 -158t-135 -432q0 -275 120.5 -432.5t328.5 -157.5q182 0 356 92v375h185v-608h-185v72q-173 -92 -385 -92q-288 0 -451 201t-163 552q0 226 83.5 396t243 262t375.5 92q232 0 404 -86l-74 -156q-175 80 -332 80z" />
    <glyph glyph-name="uni10BB" unicode="&#x10bb;" horiz-adv-x="1524" 
d="M1307 858h-207v-289q0 -275 -128 -432t-360 -157q-233 0 -366 139.5t-133 378.5q0 245 135.5 382.5t382.5 137.5h284v444h185v-444h383v-395h-176v235zM637 858q-172 0 -257 -88t-85 -272q0 -171 80.5 -265t226.5 -94q157 0 235 110t78 308v301h-278z" />
    <glyph glyph-name="uni10BC" unicode="&#x10bc;" 
d="M1135 1047q0 -216 -151 -332.5t-433 -116.5h-168v-172h424v-365h-176v207h-248v-268h-184v1462h387q549 0 549 -415zM383 756h147q217 0 315.5 67t98.5 215q0 134 -91 200.5t-284 66.5h-186v-549z" />
    <glyph glyph-name="uni10BD" unicode="&#x10bd;" horiz-adv-x="1180" 
d="M618 1321q-130 0 -203 -56.5t-73 -156.5q0 -72 28.5 -119.5t92 -86.5t199.5 -89q163 -60 243 -116.5t118 -130t38 -175.5q0 -192 -137.5 -301.5t-380.5 -109.5q-221 0 -345 102.5t-124 284.5q0 61 20 112h189q-25 -46 -25 -98q0 -116 72 -179t215 -63q164 0 248 63
t84 173q0 73 -30 119.5t-99.5 87.5t-215.5 94q-203 74 -289.5 174.5t-86.5 259.5q0 171 128.5 272t338.5 101q190 0 296.5 -94.5t106.5 -258.5l-4 -49h-184l4 47q0 90 -60.5 141.5t-163.5 51.5z" />
    <glyph glyph-name="uni10BE" unicode="&#x10be;" horiz-adv-x="1442" 
d="M201 1462h184v-450q0 -179 100.5 -284t280.5 -105q171 0 252.5 89t81.5 279v471h184v-469q0 -262 -128.5 -396t-381.5 -134q-131 0 -224.5 51t-162.5 158h-12q10 -150 10 -176v-336h821v-160h-1005v1462z" />
    <glyph glyph-name="uni10BF" unicode="&#x10bf;" horiz-adv-x="1243" 
d="M31 1462h1151v-141l-385 -561l372 -555h-204l-277 424l-420 -629h-194l512 756l-359 547h-196v159zM694 883l285 420h-551z" />
    <glyph glyph-name="uni10C0" unicode="&#x10c0;" horiz-adv-x="1546" 
d="M424 1303h-207v-236h-176v395h567v-946q0 -377 332 -377q170 0 255 98t85 277v27h184v-21q0 -253 -137 -396.5t-389 -143.5q-249 0 -381.5 139t-132.5 397v787z" />
    <glyph glyph-name="uni10C1" unicode="&#x10c1;" horiz-adv-x="1419" 
d="M383 1090l-3 -74l-5 -70h10q127 172 346 172q201 0 307.5 -114t106.5 -328h233v-160h-417v164q0 137 -60 207.5t-194 70.5q-324 0 -324 -372v-586h-184v1462h184v-372z" />
    <glyph glyph-name="uni10C2" unicode="&#x10c2;" horiz-adv-x="1294" 
d="M199 1462h176v-162h123q324 0 497.5 -173.5t173.5 -487.5q0 -197 -80.5 -346t-233.5 -231t-357 -82q-113 0 -201.5 13t-175.5 46v160q193 -58 348 -58q235 0 370.5 134t135.5 364q0 238 -131.5 369t-374.5 131h-270v323z" />
    <glyph glyph-name="uni10C3" unicode="&#x10c3;" horiz-adv-x="1393" 
d="M117 895q0 84 26.5 185t67.5 171h195q-43 -66 -69 -161t-26 -179q0 -159 73 -235t222 -76q207 0 304.5 102t97.5 336v424h184v-1462h-186v496q0 26 10 143h-10q-60 -90 -174 -144.5t-244 -54.5q-235 0 -353 117t-118 338z" />
    <glyph glyph-name="uni10C4" unicode="&#x10c4;" horiz-adv-x="1436" 
d="M625 496q-227 24 -349 164.5t-122 371.5v430h184v-436q0 -179 95.5 -277t287.5 -98q183 0 280 98t97 279v434h182v-434q0 -225 -123 -364t-348 -166v-498h-184v496z" />
    <glyph glyph-name="uni10C5" unicode="&#x10c5;" horiz-adv-x="1722" 
d="M868 950h265q149 0 220.5 45t71.5 138q0 91 -69 140.5t-211 49.5q-136 0 -206.5 -65t-70.5 -191v-117zM684 1061q0 196 125.5 309t343.5 113q221 0 344 -92.5t123 -260.5q0 -164 -124 -251.5t-349 -87.5h-279v-150h516v-160h-516v-80q0 -195 -101.5 -308t-281.5 -113
q-183 0 -283 88t-100 247q0 326 420 326h162v420zM684 481h-149q-124 0 -181 -40t-57 -128q0 -174 195 -174q92 0 142 68t50 194v80z" />
    <glyph glyph-name="uni10D0" unicode="&#x10d0;" horiz-adv-x="1184" 
d="M672 1098v-51q0 -64 39 -114t135 -118q101 -71 146 -123.5t69 -115.5t24 -142q0 -208 -136.5 -331t-366.5 -123q-232 0 -364 114.5t-132 317.5q0 78 18 161h191q-23 -73 -23 -163q0 -135 78 -207t236 -72q145 0 229 76.5t84 216.5q0 71 -43.5 137.5t-146.5 143.5
q-125 92 -171 167.5t-46 182.5v43h180z" />
    <glyph glyph-name="uni10D1" unicode="&#x10d1;" 
d="M1128 551q0 -269 -136 -420t-376 -151q-149 0 -264 69.5t-177 199.5t-62 302q0 263 130 412.5t369 154.5q31 45 31 96q0 31 -16.5 53.5t-55.5 22.5q-117 0 -169 62t-52 204h160q0 -67 21 -95.5t79 -28.5q90 0 141.5 -49t51.5 -136q0 -74 -43 -145q175 -44 271.5 -189.5
t96.5 -361.5zM299 551q0 -207 81.5 -314.5t240.5 -107.5q157 0 239 107.5t82 314.5t-82.5 311.5t-241.5 104.5q-319 0 -319 -416z" />
    <glyph glyph-name="uni10D2" unicode="&#x10d2;" 
d="M113 76q0 268 136.5 419.5t375.5 151.5q33 0 100 -8q39 72 39 156q0 75 -38.5 123.5t-117.5 48.5q-78 0 -114.5 -40.5t-36.5 -105.5q0 -47 8 -90h-180q-9 42 -9 82q0 150 85.5 227.5t246.5 77.5q160 0 248 -84.5t88 -242.5q0 -50 -15 -107t-46 -102q118 -69 181.5 -200
t63.5 -306q0 -267 -134.5 -417.5t-375.5 -150.5q-151 0 -265.5 67.5t-177 197t-62.5 303.5zM942 76q0 207 -81.5 314.5t-239.5 107.5q-157 0 -239.5 -107t-82.5 -315q0 -207 82.5 -311.5t241.5 -104.5q319 0 319 416z" />
    <glyph glyph-name="uni10D3" unicode="&#x10d3;" horiz-adv-x="1741" 
d="M961 561q0 -217 59 -323.5t182 -106.5q121 0 182.5 109.5t61.5 318.5q0 199 -63 304.5t-173 105.5q-135 0 -192 -92.5t-57 -315.5zM115 557q0 264 110 412.5t310 148.5q250 0 329 -211h10q49 110 127.5 160.5t202.5 50.5q199 0 310.5 -149t111.5 -412q0 -281 -106.5 -429
t-313.5 -148q-212 0 -319 147.5t-107 435.5v80q0 157 -54.5 241.5t-178.5 84.5q-120 0 -186 -107.5t-66 -304.5q0 -185 44.5 -302t138 -200.5t247.5 -132.5q133 -43 220.5 -88t143.5 -98t109 -148l-143 -80q-58 116 -178.5 185t-266.5 69q-94 0 -169.5 -20t-178.5 -74
l-63 146q60 29 113 47t145 37q-172 100 -257 262t-85 397z" />
    <glyph glyph-name="uni10D4" unicode="&#x10d4;" horiz-adv-x="1255" 
d="M584 -492q-247 0 -372.5 121t-125.5 353q0 100 25 170h184q-13 -27 -21 -77t-8 -91q0 -163 78.5 -243.5t241.5 -80.5q173 0 249 113t76 360v365q0 249 -76 359t-251 110q-125 0 -195 -77.5t-70 -213.5q0 -50 5 -78h-177q-6 42 -6 82q0 126 56.5 227.5t159.5 156t235 54.5
q500 0 500 -620v-361q0 -316 -126.5 -472.5t-381.5 -156.5z" />
    <glyph glyph-name="uni10D5" unicode="&#x10d5;" horiz-adv-x="1137" 
d="M547 -340q151 0 234 89.5t83 248.5q0 321 -389 321h-139v152h139q163 0 249.5 65t86.5 187q0 118 -66 182t-192 64q-252 0 -252 -215l4 -45l-176 -2q-6 42 -6 57q0 163 115 258.5t317 95.5q205 0 320.5 -99t115.5 -271q0 -135 -64.5 -219.5t-199.5 -125.5
q153 -39 238.5 -145t85.5 -256q0 -227 -139 -360.5t-373 -133.5q-230 0 -351.5 109.5t-121.5 316.5q0 69 20 125h184q-10 -22 -17 -57.5t-7 -64.5q0 -138 77 -207.5t224 -69.5z" />
    <glyph glyph-name="uni10D6" unicode="&#x10d6;" horiz-adv-x="1286" 
d="M1176 551q0 -269 -136 -420t-376 -151q-149 0 -264 69t-177.5 198.5t-62.5 303.5q0 184 86 323q-137 15 -212 107t-75 244q0 156 90.5 249t247.5 93q153 0 245.5 -89.5t92.5 -238.5q0 -64 -21 -125q34 4 72 4q145 0 256.5 -69t172.5 -198t61 -300zM346 551
q0 -207 81.5 -314.5t240.5 -107.5q157 0 239 107.5t82 314.5t-83 311.5t-240 104.5q-162 0 -241 -102.5t-79 -313.5zM297 1010q79 0 122.5 54t43.5 159q0 200 -166 200t-166 -200q0 -104 43 -158.5t123 -54.5z" />
    <glyph glyph-name="uni10D7" unicode="&#x10d7;" horiz-adv-x="1741" 
d="M780 561q0 218 -52.5 313t-184.5 95q-119 0 -183.5 -106.5t-64.5 -303.5q0 -209 61.5 -318.5t182.5 -109.5q124 0 182.5 107.5t58.5 322.5zM961 563q0 -288 -107 -435.5t-319 -147.5q-208 0 -314 147t-106 430q0 262 109.5 411.5t312.5 149.5q123 0 203 -49t126 -162h11
q45 110 125.5 160.5t203.5 50.5q199 0 309.5 -147t110.5 -406q0 -155 -31.5 -287t-99.5 -278h-184q70 147 102.5 279t32.5 288q0 188 -66 295t-186 107t-176.5 -81t-56.5 -245v-80z" />
    <glyph glyph-name="uni10D8" unicode="&#x10d8;" 
d="M113 549q0 268 135 418.5t375 150.5q232 0 368.5 -152.5t136.5 -414.5q0 -156 -41.5 -306t-109.5 -245h-193q158 232 158 549q0 207 -83 312.5t-241 105.5q-157 0 -238 -105.5t-81 -312.5q0 -317 158 -549h-193q-65 91 -108 239.5t-43 309.5z" />
    <glyph glyph-name="uni10D9" unicode="&#x10d9;" horiz-adv-x="1096" 
d="M432 1112q51 6 82 6q208 0 327.5 -100.5t119.5 -269.5q0 -140 -64.5 -224t-196.5 -125q150 -38 230 -141t80 -256q0 -227 -139 -360.5t-373 -133.5q-230 0 -351.5 109.5t-121.5 316.5q0 69 20 125h184q-10 -22 -17 -57.5t-7 -64.5q0 -138 77 -207.5t224 -69.5
q151 0 234 89.5t83 248.5q0 155 -97 238t-275 83h-19v152h21q153 0 240 67t87 185q0 115 -69.5 180.5t-198.5 65.5q-43 0 -80 -6v149z" />
    <glyph glyph-name="uni10DA" unicode="&#x10da;" horiz-adv-x="2224" 
d="M1524 -492q-134 147 -298.5 215t-359.5 68q-128 0 -238 -37.5t-179 -105.5l-101 119q100 89 277 137q-510 223 -510 680q0 263 101.5 398.5t303.5 135.5q105 0 183 -48.5t120 -141.5h11q68 190 309 190q112 0 193 -46t116 -144h10q41 91 119.5 140.5t185.5 49.5
q404 0 404 -559q0 -152 -30.5 -280t-100.5 -279h-185q77 162 106.5 288.5t29.5 270.5q0 210 -54.5 310t-177.5 100q-98 0 -158.5 -90.5t-60.5 -231.5v-92h-172v88q0 142 -62 234t-163 92t-163 -92.5t-62 -233.5v-88h-173v92q0 139 -59.5 230.5t-157.5 91.5
q-118 0 -175.5 -90t-57.5 -285q0 -180 86 -306.5t268 -231.5t295 -113q221 -14 388 -90t304 -234z" />
    <glyph glyph-name="uni10DB" unicode="&#x10db;" 
d="M606 129q145 0 228.5 113.5t83.5 312.5q0 412 -316 412q-148 0 -226.5 -105.5t-78.5 -310.5t77 -313.5t232 -108.5zM602 1415q-103 0 -163 -48t-60 -132l4 -37l-178 -2q-6 36 -6 51q0 88 52 162t145 116t212 42q240 0 374 -210t134 -599q0 -391 -129.5 -584.5
t-396.5 -193.5q-225 0 -352 149.5t-127 419.5q0 269 122 418t338 149q235 0 338 -155h11q-61 454 -318 454z" />
    <glyph glyph-name="uni10DC" unicode="&#x10dc;" horiz-adv-x="1249" 
d="M633 967q-158 0 -241 -101.5t-83 -296.5q0 -216 82 -328t238 -112q160 0 241.5 106.5t81.5 315.5q0 205 -80.5 310.5t-238.5 105.5zM688 1405q-164 0 -254 -105t-123 -348h11q61 86 142 125t195 39q228 0 354 -149t126 -418q0 -276 -133.5 -422.5t-378.5 -146.5
q-186 0 -294 77.5t-159 240.5t-51 407q0 421 136.5 636t404.5 215h356v-151h-332z" />
    <glyph glyph-name="uni10DD" unicode="&#x10dd;" horiz-adv-x="1741" 
d="M1206 1118q199 0 309.5 -147t110.5 -406q0 -155 -31.5 -287t-99.5 -278h-184q70 147 102.5 279t32.5 288q0 198 -67.5 300t-184.5 102q-113 0 -175.5 -75.5t-62.5 -213.5v-135h-172v135q0 139 -61.5 214t-179.5 75t-183 -102t-65 -300q0 -163 33.5 -295.5t101.5 -271.5
h-184q-69 143 -100 276.5t-31 288.5q0 262 112.5 407.5t309.5 145.5q126 0 206.5 -52t122.5 -159h11q45 110 125.5 160.5t203.5 50.5z" />
    <glyph glyph-name="uni10DE" unicode="&#x10de;" horiz-adv-x="1202" 
d="M768 778q156 -36 240 -131.5t84 -226.5q0 -199 -137 -319.5t-375 -120.5q-230 0 -352 109t-122 317q0 65 21 124h184q-9 -19 -16.5 -55.5t-7.5 -66.5q0 -138 77 -207.5t224 -69.5q152 0 234.5 78t82.5 211q0 274 -389 274h-139v152h139q163 0 249.5 65t86.5 187
q0 206 -213 223l-54 4q-195 15 -313 102l86 140q45 -38 99 -57.5t131 -27.5l110 -14q160 -21 247 -108t87 -238q0 -136 -64.5 -219.5t-199.5 -124.5z" />
    <glyph glyph-name="uni10DF" unicode="&#x10df;" horiz-adv-x="1280" 
d="M926 950l-314 -82q50 -38 77.5 -95t27.5 -126q0 -138 -86.5 -222.5t-231.5 -84.5q-313 0 -313 315l4 58h168q-4 -19 -4 -60q0 -82 38 -128t107 -46q70 0 110 46t40 128q0 153 -146 174v129l537 142h166v-1071q0 -255 -126 -387t-372 -132q-225 0 -348 106t-123 306
q0 75 21 148h182q-23 -75 -23 -148q0 -130 76 -195t219 -65q170 0 242 88.5t72 284.5v917z" />
    <glyph glyph-name="uni10E0" unicode="&#x10e0;" horiz-adv-x="1741" 
d="M432 1104q44 14 105 14q248 0 329 -211h11q45 111 126 161t203 50q197 0 308.5 -147t111.5 -406q0 -155 -31.5 -287t-99.5 -278h-184q70 147 102.5 279t32.5 288q0 192 -65.5 297t-186.5 105q-113 0 -175.5 -75.5t-62.5 -213.5v-135h-172v135q0 139 -61.5 214t-179.5 75
q-114 0 -181 -100t-67 -302q0 -163 33.5 -295.5t101.5 -271.5h-184q-72 150 -101.5 276.5t-29.5 272.5q0 261 67.5 436.5t201 294.5t343.5 193t504 104l20 -156q-275 -20 -485 -99.5t-334 -209.5v-8z" />
    <glyph glyph-name="uni10E1" unicode="&#x10e1;" horiz-adv-x="1255" 
d="M1145 573q0 -293 -130.5 -443t-385.5 -150q-467 0 -467 518v1058h180v-1052q0 -377 301 -377q320 0 320 451q0 265 -226 520h205q90 -98 146.5 -238t56.5 -287z" />
    <glyph glyph-name="uni10E2" unicode="&#x10e2;" horiz-adv-x="1573" 
d="M1460 315q0 -249 -81.5 -431.5t-234.5 -279t-358 -96.5q-324 0 -498.5 211.5t-174.5 597.5q0 222 68.5 394.5t200.5 276.5t314 124v444h181v-442q274 -29 428.5 -238t154.5 -561zM696 489v469q-194 -31 -295.5 -197t-101.5 -446q0 -316 126 -485.5t361 -169.5
q236 0 362 168.5t126 486.5q0 282 -101.5 448.5t-295.5 197.5v-472h-181z" />
    <glyph glyph-name="uni10E3" unicode="&#x10e3;" horiz-adv-x="1237" 
d="M219 1118q199 0 258 -190h8q71 190 265 190q150 0 235.5 -112t85.5 -324v-655q0 -254 -125.5 -386.5t-372.5 -132.5q-228 0 -349.5 130t-121.5 366q0 107 21 178h182q-22 -70 -22 -178q0 -171 75.5 -257.5t219.5 -86.5q168 0 240.5 87t72.5 286v649q0 287 -162 287
q-76 0 -120 -76t-44 -215v-51h-172v47q0 143 -43.5 219t-124.5 76q-38 0 -76.5 -9t-56.5 -20l-61 135q66 43 188 43z" />
    <glyph glyph-name="uni10E4" unicode="&#x10e4;" horiz-adv-x="1792" 
d="M1016 649q0 -222 -119.5 -347.5t-333.5 -125.5q-205 0 -327.5 128t-122.5 345q0 221 120 345t336 124q194 0 314 -112q126 112 327 112q207 0 322 -98t115 -272q0 -261 -261 -349q155 -40 237.5 -142.5t82.5 -254.5q0 -236 -154.5 -365t-445.5 -129q-272 0 -413.5 103.5
t-141.5 300.5q0 66 20 119h185q-25 -50 -25 -115q0 -127 99 -191.5t286 -64.5q404 0 404 338q0 154 -95.5 237.5t-273.5 83.5h-29v152h29q151 0 233 66.5t82 185.5q0 118 -66 182t-192 64q-154 0 -241 -80q49 -109 49 -240zM299 649q0 -161 68.5 -242t199.5 -81t200 80.5
t69 242.5q0 318 -271 318q-266 0 -266 -318z" />
    <glyph glyph-name="uni10E5" unicode="&#x10e5;" horiz-adv-x="1247" 
d="M184 541q-20 82 -20 157q0 202 104.5 311t309.5 109q97 0 175 -33t138 -116h12q-10 64 -10 153v434h180v-1529q0 -254 -123.5 -386.5t-359.5 -132.5q-492 0 -492 412q0 75 21 148h182q-22 -71 -22 -148q0 -260 315 -260q299 0 299 373v598q0 162 -80.5 250t-226.5 88
q-115 0 -175.5 -75t-60.5 -218q0 -69 17 -135h-183z" />
    <glyph glyph-name="uni10E6" unicode="&#x10e6;" horiz-adv-x="1741" 
d="M115 557q0 267 110 414t312 147q250 0 329 -211h11q45 110 125.5 160.5t203.5 50.5q196 0 308 -147.5t112 -405.5q0 -155 -31.5 -287t-99.5 -278h-184q70 147 102.5 279t32.5 288q0 190 -65 296t-187 106q-113 0 -175.5 -75.5t-62.5 -213.5v-135h-172v135
q0 139 -61.5 214t-179.5 75q-120 0 -184 -105t-64 -307q0 -186 45 -303t140.5 -200t252.5 -134q130 -42 215 -86t141.5 -98.5t108.5 -147.5l-143 -80q-58 116 -178.5 185t-266.5 69q-94 0 -169.5 -20t-178.5 -74l-65 146q59 29 110.5 46t149.5 38q-172 100 -257 262t-85 397
z" />
    <glyph glyph-name="uni10E7" unicode="&#x10e7;" horiz-adv-x="1262" 
d="M1087 27q0 -255 -126 -387t-373 -132q-227 0 -351 109t-124 303q0 79 20 148h182q-22 -71 -22 -148q0 -130 78 -195t219 -65q160 0 238.5 92t78.5 281v252q0 83 11 153h-13q-52 -84 -143.5 -127t-198.5 -43q-223 0 -336.5 109.5t-113.5 310.5q0 117 37.5 228t103.5 182
h203q-158 -161 -158 -387q0 -293 287 -293q321 0 321 317v363h180v-1071z" />
    <glyph glyph-name="uni10E8" unicode="&#x10e8;" 
d="M606 129q144 0 228 99t84 274q0 360 -316 360q-149 0 -227 -92.5t-78 -271.5q0 -180 77 -274.5t232 -94.5zM1116 758q0 -391 -129.5 -584.5t-396.5 -193.5q-226 0 -352.5 135.5t-126.5 380.5q0 246 123 381t337 135q130 0 216 -43.5t133 -112.5h10q0 201 -17 325.5
t-53 180t-108 55.5q-68 0 -107 -76.5t-39 -214.5h-172q0 144 -41 217.5t-117 73.5q-72 0 -114 -28l-62 135q70 43 172 43q104 0 161.5 -40.5t84.5 -129.5h8q29 81 86.5 125.5t139.5 44.5q102 0 169 -48t109.5 -145.5t64 -250t21.5 -365.5z" />
    <glyph glyph-name="uni10E9" unicode="&#x10e9;" horiz-adv-x="1264" 
d="M174 1139q0 209 77.5 318.5t242.5 109.5q130 0 208 -70.5t78 -183.5q0 -145 -103 -218t-323 -73v-96q0 -90 -10 -154h12q49 80 139 125t203 45q223 0 337 -124t114 -353q0 -134 -42.5 -260t-109.5 -205h-192q158 190 158 451q0 342 -287 342q-169 0 -245.5 -87
t-76.5 -284v-422h-180v1139zM496 1419q-76 0 -108 -57t-34 -201q133 0 195.5 36t62.5 116q0 47 -30.5 76.5t-85.5 29.5z" />
    <glyph glyph-name="uni10EA" unicode="&#x10ea;" horiz-adv-x="1309" 
d="M1174 723q0 -141 -66 -225.5t-195 -122.5q149 -38 229.5 -136.5t80.5 -250.5q0 -222 -141 -351t-388 -129q-212 0 -333.5 77.5t-179.5 246t-58 451.5q0 234 51 459t133 356h180q-80 -132 -132 -357t-52 -454q0 -242 36.5 -375.5t118 -192.5t238.5 -59q162 0 251 84
t89 242q0 148 -96 228.5t-276 80.5h-60v151h62q153 0 240 67t87 185q0 58 -16.5 94t-46 59t-70.5 36.5t-90 27.5q-46 13 -76 26.5t-49.5 27t-42.5 39.5l86 131q18 -23 55.5 -41t114.5 -41q172 -51 244 -126t72 -208z" />
    <glyph glyph-name="uni10EB" unicode="&#x10eb;" horiz-adv-x="1249" 
d="M600 129q157 0 231 104t74 312v10q0 224 -72 318t-237 94q-146 0 -221.5 -104t-75.5 -312q0 -422 301 -422zM1085 1556v-1005q0 -571 -501 -571q-228 0 -349.5 146t-121.5 423q0 269 118.5 418t333.5 149q229 0 340 -164h10q-10 113 -10 226v378h180z" />
    <glyph glyph-name="uni10EC" unicode="&#x10ec;" 
d="M633 129q155 0 232 94.5t77 274.5q0 178 -78 271t-227 93q-315 0 -315 -360q0 -173 83 -273t228 -100zM123 758q0 212 21.5 364.5t63.5 250t109 146t170 48.5q82 0 139.5 -44.5t86.5 -125.5h8q27 89 84 129.5t162 40.5q102 0 172 -43l-62 -135q-42 28 -114 28
q-76 0 -117 -73.5t-41 -217.5h-172q0 136 -38.5 213.5t-107.5 77.5q-72 0 -108 -55.5t-53 -181t-17 -324.5h10q47 69 133 112.5t216 43.5q215 0 337.5 -135.5t122.5 -380.5t-126 -380.5t-353 -135.5q-267 0 -396.5 193.5t-129.5 584.5z" />
    <glyph glyph-name="uni10ED" unicode="&#x10ed;" horiz-adv-x="1184" 
d="M594 467q0 104 12 156h-12q-64 -64 -174 -64q-130 0 -210.5 80.5t-80.5 202.5q0 126 80 201t211 75q111 0 174 -63h12q-12 52 -12 155v346h180v-643h277v-151h-277v-297q0 -67 21.5 -104t99.5 -97q107 -83 148.5 -162.5t41.5 -185.5q0 -186 -137 -297t-366 -111
q-232 0 -364 105t-132 293q0 87 18 162h191q-23 -75 -23 -164q0 -118 78 -181t236 -63q140 0 226.5 67t86.5 177q0 69 -33 123.5t-112 119.5q-92 76 -126 139t-34 156v25zM301 840q0 -67 38 -105.5t107 -38.5q72 0 110 38.5t38 105.5q0 66 -39 102.5t-109 36.5
q-68 0 -106.5 -36.5t-38.5 -102.5z" />
    <glyph glyph-name="uni10EE" unicode="&#x10ee;" horiz-adv-x="1249" 
d="M649 129q151 0 226 107.5t75 314.5q0 205 -75.5 310.5t-221.5 105.5q-163 0 -236 -96t-73 -316v-10q0 -214 74 -315t231 -101zM344 1556v-378q0 -113 -10 -226h10q111 164 340 164q215 0 334 -149t119 -418q0 -280 -126 -424.5t-364 -144.5q-241 0 -362 139.5t-121 431.5
v1005h180z" />
    <glyph glyph-name="uni10EF" unicode="&#x10ef;" horiz-adv-x="1184" 
d="M961 473l-289 119v-127q0 -56 38 -98t136 -103q96 -61 142.5 -110t71.5 -107t25 -131q0 -186 -137 -297t-366 -111q-232 0 -364 105t-132 293q0 77 18 162h191q-23 -75 -23 -164q0 -118 78 -181t236 -63q140 0 226.5 67t86.5 177q0 46 -18.5 84t-54.5 73t-117 86
q-131 86 -174 146.5t-43 148.5v224l-345 141l60 133l285 -119v277h180v-350l344 -144z" />
    <glyph glyph-name="uni10F0" unicode="&#x10f0;" horiz-adv-x="1206" 
d="M1034 1231q0 -105 -55 -160t-178 -82q243 -44 243 -241q0 -85 -56.5 -145t-153.5 -79q90 -16 144.5 -45t79.5 -72t25 -118q0 -141 -136.5 -225t-375.5 -84q-229 0 -351 88t-122 258q0 66 21 125h184q-9 -20 -16.5 -55.5t-7.5 -67.5q0 -97 77 -147t224 -50q159 0 238 44
t79 116q0 79 -86 114t-270 35h-47v160h47q323 0 323 145q0 90 -71.5 125t-251.5 35h-47v152h47q313 0 313 162q0 64 -71 93t-206 32q-105 1 -176.5 23.5t-136.5 70.5l86 139q44 -37 96 -56.5t134 -23.5l54 -3q400 -22 400 -263z" />
    <glyph glyph-name="uni10F1" unicode="&#x10f1;" horiz-adv-x="1343" 
d="M709 -20q-285 0 -415 124t-130 394v1058h180v-1040q0 -150 35 -232t113 -117.5t225 -35.5q159 0 238 44t79 116q0 79 -86 114t-270 35h-47v160h47q323 0 323 145q0 90 -71.5 125t-251.5 35h-47v152h47q313 0 313 162q0 58 -38.5 86t-118.5 36q-103 8 -158 30.5t-101 66.5
l87 139q31 -36 73 -54.5t106 -24.5l74 -9q131 -20 193.5 -82t62.5 -176q0 -92 -53.5 -154t-179.5 -88q244 -45 244 -241q0 -86 -57 -145.5t-154 -78.5q126 -21 188 -78t62 -157q0 -140 -136.5 -224.5t-375.5 -84.5z" />
    <glyph glyph-name="uni10F2" unicode="&#x10f2;" horiz-adv-x="1249" 
d="M1137 633q0 -152 -88.5 -288.5t-255.5 -248.5q192 -77 415 -116l-43 -158q-301 63 -540 178q-242 -116 -541 -178l-43 158q220 38 416 116q-168 113 -256 249.5t-88 287.5q0 224 138 353.5t374 129.5q234 0 373 -130t139 -353zM297 633q0 -127 82 -243t246 -212
q164 97 245.5 213t81.5 242q0 163 -84.5 247.5t-242.5 84.5q-160 0 -244 -84.5t-84 -247.5z" />
    <glyph glyph-name="uni10F3" unicode="&#x10f3;" horiz-adv-x="1128" 
d="M139 1098h803v-131q0 -123 -25.5 -210t-74 -147t-150.5 -114q168 -47 259 -165.5t91 -291.5q0 -245 -138 -388t-374 -143q-229 0 -351 123t-122 357q0 74 21 141h184q-10 -24 -17 -66.5t-7 -76.5q0 -162 77 -244t224 -82q152 0 234.5 100.5t82.5 272.5
q0 173 -102.5 263.5t-298.5 90.5h-115v152q215 0 318.5 98.5t103.5 308.5h-443v-127h-180v279z" />
    <glyph glyph-name="uni10F4" unicode="&#x10f4;" horiz-adv-x="1137" 
d="M991 748q0 -135 -64.5 -219.5t-199.5 -125.5q153 -39 238.5 -145t85.5 -256q0 -227 -139 -360.5t-373 -133.5q-230 0 -351.5 109.5t-121.5 316.5q0 69 20 125h184q-10 -22 -17 -57.5t-7 -64.5q0 -138 77 -207.5t224 -69.5q151 0 234 89.5t83 248.5q0 321 -389 321h-139
v152h139q163 0 249.5 65t86.5 187q0 225 -227 246q-332 26 -332 307q0 136 92.5 213.5t247.5 77.5q154 0 291 -74l-62 -143q-124 69 -227 69q-84 0 -127 -35.5t-43 -97.5q0 -64 17.5 -95t57 -49t107.5 -24q185 -17 285 -111.5t100 -258.5z" />
    <glyph glyph-name="uni10F5" unicode="&#x10f5;" horiz-adv-x="1348" 
d="M866 549h-317q-119 0 -184.5 -51.5t-65.5 -151.5q0 -99 74 -157t215 -58q134 0 206 82t72 227v109zM1047 700h229v-151h-229v-105q0 -217 -122.5 -340.5t-344.5 -123.5q-221 0 -344 96.5t-123 271.5q0 168 118.5 260t337.5 92h297v191h-338q-189 0 -288 86t-99 244
q0 160 119.5 253t333.5 93q217 0 335 -111.5t118 -337.5v-76h229v-151h-229v-191zM866 1118q0 139 -67 218t-209 79q-127 0 -194.5 -48.5t-67.5 -143.5q0 -181 215 -181h323v76z" />
    <glyph glyph-name="uni10F6" unicode="&#x10f6;" horiz-adv-x="1991" 
d="M600 969q-301 0 -301 -422q0 -209 72.5 -312.5t224.5 -103.5q165 0 237 94.5t72 317.5q0 426 -305 426zM1386 969q-144 0 -223.5 -112t-79.5 -314q0 -223 74.5 -318.5t243.5 -95.5q139 0 215 110.5t76 315.5q0 204 -77.5 309t-228.5 105zM905 -80q0 112 10 225h-10
q-107 -163 -340 -163q-215 0 -333.5 149t-118.5 418q0 276 126.5 422.5t362.5 146.5q281 0 395 -256q58 132 161 194t235 62q235 0 360 -145t125 -422q0 -269 -118.5 -420t-334.5 -151q-222 0 -340 161h-12l4 -35q8 -75 8 -180v-418h-180v412z" />
    <glyph glyph-name="uni10F7" unicode="&#x10f7;" horiz-adv-x="1100" 
d="M872 -23q0 31 -7 67t-17 56h190q21 -59 21 -125q0 -215 -137 -341t-373 -126q-238 0 -369 117.5t-131 331.5q0 110 44.5 193t135.5 152t293 159q139 60 196.5 128.5t57.5 176.5q0 91 -57.5 146t-163.5 55q-227 0 -227 -213l4 -47h-178q-4 28 -4 57q0 163 109 258.5
t296 95.5t296.5 -95.5t109.5 -258.5q0 -156 -94 -264t-292 -193q-132 -59 -204 -108.5t-103.5 -104t-31.5 -135.5q0 -144 79.5 -221.5t233.5 -77.5q151 0 237 86t86 231z" />
    <glyph glyph-name="uni10F8" unicode="&#x10f8;" horiz-adv-x="1262" 
d="M174 1098h180v-363q0 -317 322 -317q287 0 287 293q0 223 -158 387h203q62 -66 101.5 -177t39.5 -233q0 -201 -114 -310.5t-337 -109.5q-107 0 -198.5 43.5t-143.5 126.5h-12q10 -64 10 -153v-252q0 -189 79 -281t239 -92q140 0 218.5 65t78.5 195q0 79 -23 148h182
q21 -73 21 -148q0 -195 -124.5 -303.5t-350.5 -108.5q-246 0 -373 131t-127 388v1071z" />
    <glyph glyph-name="uni10F9" unicode="&#x10f9;" 
d="M1128 551q0 -269 -136 -420t-376 -151q-33 0 -100 8q-39 -76 -39 -156q0 -75 38.5 -123.5t117.5 -48.5q78 0 114.5 40t36.5 105q0 48 -8 91h180q9 -31 9 -82q0 -149 -85 -227.5t-247 -78.5q-161 0 -248.5 85.5t-87.5 242.5q0 50 15 107t46 102q-112 66 -178.5 193.5
t-66.5 312.5q0 268 134 417.5t376 149.5q232 0 368.5 -152.5t136.5 -414.5zM299 551q0 -207 81.5 -314.5t240.5 -107.5q157 0 239 107.5t82 314.5t-82.5 311.5t-241.5 104.5q-319 0 -319 -416z" />
    <glyph glyph-name="uni10FA" unicode="&#x10fa;" horiz-adv-x="1227" 
d="M143 27q96 54 219 90q-119 68 -184 190t-65 281q0 153 63 274.5t179 188.5t270 67q244 0 373.5 -122.5t129.5 -354.5q0 -87 -20 -149h-184q10 24 17 69t7 84q0 155 -85.5 238.5t-239.5 83.5q-149 0 -236.5 -102t-87.5 -279q0 -193 95 -306.5t278 -127.5
q152 -13 265.5 -97t182.5 -227l-147 -72q-117 244 -371 244q-199 0 -395 -115z" />
    <glyph glyph-name="uni10FB" unicode="&#x10fb;" horiz-adv-x="1092" 
d="M147 111q0 66 32 102.5t95 36.5q61 0 94 -36t33 -103t-34 -103.5t-93 -36.5q-61 0 -94 37t-33 103zM147 987q0 139 127 139q63 0 95 -36t32 -103q0 -66 -34 -102.5t-93 -36.5q-61 0 -94 37t-33 102zM711 549q0 70 33 104.5t94 34.5t94 -36t33 -103q0 -66 -34 -102.5
t-93 -36.5t-93 35t-34 104z" />
    <glyph glyph-name="uni10FC" unicode="&#x10fc;" horiz-adv-x="870" 
d="M440 1485q-87 0 -138.5 -55t-51.5 -168q0 -116 48.5 -179t139.5 -63q191 0 191 231q0 120 -51.5 177t-137.5 57zM475 1749q-96 0 -152 -56.5t-77 -179.5q32 39 80.5 62.5t130.5 23.5q152 0 237.5 -90.5t85.5 -259.5t-89.5 -258.5t-254.5 -89.5q-124 0 -194.5 45.5
t-107 142.5t-36.5 252q0 257 91.5 392t269.5 135h243v-119h-227z" />
    <glyph glyph-name="uni2D00" unicode="&#x2d00;" horiz-adv-x="1085" 
d="M1028 1098v-152h-471v-610q0 -117 56.5 -165t193.5 -48q129 0 221 22v-135q-42 -15 -109 -24t-126 -9q-223 0 -319.5 82t-96.5 258v629h-357v152h1008z" />
    <glyph glyph-name="uni2D01" unicode="&#x2d01;" horiz-adv-x="1286" 
d="M924 166q-52 -91 -148.5 -138.5t-214.5 -47.5q-198 0 -298.5 95t-100.5 304v719h182v-707q0 -133 59.5 -197.5t184.5 -64.5q169 0 246 94t77 303v572h181v-791q0 -59 17.5 -106.5t38.5 -94t38.5 -96t17.5 -112.5q0 -185 -146 -287.5t-407 -102.5q-283 0 -450 70v168
q78 -40 187 -63t230 -23q197 0 301.5 61.5t104.5 176.5q0 44 -11 79t-26 65.5t-30.5 60t-24.5 63.5h-8z" />
    <glyph glyph-name="uni2D02" unicode="&#x2d02;" horiz-adv-x="1378" 
d="M1192 307q0 -59 17.5 -103.5t39 -87t39 -89t17.5 -109.5q0 -197 -140 -303.5t-395 -106.5q-251 0 -416 70v168q181 -86 437 -86q148 0 240.5 72t92.5 186q0 51 -17.5 94.5t-38.5 87.5t-38.5 92.5t-17.5 108.5v401q0 134 -58.5 199.5t-185.5 65.5q-169 0 -245.5 -93.5
t-76.5 -304.5v-569h-180v842q0 59 -23 81.5t-77 22.5h-146v152h185q114 0 168 -34t65 -116h11q52 82 143.5 126t202.5 44q202 0 299.5 -98.5t97.5 -304.5v-408z" />
    <glyph glyph-name="uni2D03" unicode="&#x2d03;" 
d="M170 1405v151h901v-151h-379v-21q0 -116 13 -185t41.5 -116.5t119.5 -117.5q137 -105 199.5 -223.5t62.5 -258.5q0 -236 -137.5 -369.5t-374.5 -133.5q-228 0 -365.5 137t-137.5 375q0 192 119.5 331.5t338.5 210.5q-32 63 -45.5 145.5t-13.5 204.5v21h-342zM657 918
q-356 -111 -356 -431q0 -159 85 -258.5t230 -99.5q157 0 241.5 87t84.5 265q0 204 -194 359q-56 43 -91 78z" />
    <glyph glyph-name="uni2D04" unicode="&#x2d04;" horiz-adv-x="1358" 
d="M1192 -53q0 -128 23 -245t61 -194h-184q-80 168 -80 433v761q0 134 -58.5 199.5t-185.5 65.5q-169 0 -245.5 -93.5t-76.5 -304.5v-569h-180v842q0 59 -23 81.5t-77 22.5h-146v152h185q114 0 168 -34t65 -116h11q52 82 143.5 126t202.5 44q202 0 299.5 -98.5t97.5 -304.5
v-768z" />
    <glyph glyph-name="uni2D05" unicode="&#x2d05;" horiz-adv-x="1915" 
d="M872 707q0 130 -54.5 195t-170.5 65q-152 0 -222.5 -93t-70.5 -305v-569h-180v842q0 59 -23 81.5t-77 22.5h-146v152h207q100 0 150 -35t61 -115h10q47 80 132.5 125t191.5 45q258 0 336 -184h10q53 88 144.5 136t207.5 48q186 0 278.5 -96t92.5 -307v-715h-180v707
q0 130 -53.5 195t-167.5 65q-153 0 -225 -89t-72 -272v-659q0 -119 22.5 -237.5t63.5 -201.5h-185q-80 172 -80 433v766z" />
    <glyph glyph-name="uni2D06" unicode="&#x2d06;" horiz-adv-x="1270" 
d="M-61 1556h180q134 0 190 -49t56 -178v-151q0 -101 -11 -226h11q111 164 340 164q215 0 333.5 -149t118.5 -418q0 -279 -125 -424t-364 -145q-245 0 -364.5 142t-119.5 429v749q0 59 -23 82t-77 23h-145v151zM670 129q148 0 224.5 106t76.5 316q0 206 -76 311t-221 105
q-163 0 -236 -96t-73 -316v-10q0 -214 74 -315t231 -101z" />
    <glyph glyph-name="uni2D07" unicode="&#x2d07;" horiz-adv-x="1915" 
d="M174 1098h145l27 -150h10q47 80 132.5 125t191.5 45q258 0 336 -184h10q53 88 144.5 136t207.5 48q186 0 278.5 -96t92.5 -307v-715h-178v707q0 260 -223 260q-153 0 -225 -89t-72 -272v-606h-144l-28 145h-9q-45 -77 -129 -121t-196 -44q-185 0 -278 95t-93 304v719z
M354 391q0 -133 54.5 -197.5t169.5 -64.5q153 0 223.5 94t70.5 303v181q0 130 -54.5 195t-170.5 65q-152 0 -222.5 -93t-70.5 -305v-178z" />
    <glyph glyph-name="uni2D08" unicode="&#x2d08;" horiz-adv-x="973" 
d="M20 946v152h418q369 0 369 -353v-745h-180v745q0 201 -219 201h-388z" />
    <glyph glyph-name="uni2D09" unicode="&#x2d09;" horiz-adv-x="1257" 
d="M1092 -53q0 -121 21 -236.5t63 -202.5h-185q-80 172 -80 433v53q0 55 13 151h-15q-50 -79 -139 -122t-207 -43q-198 0 -297.5 95t-99.5 304v1177h180v-456q0 -90 -10 -154h12q49 80 139 125t203 45q199 0 300.5 -95.5t101.5 -305.5v-768zM911 702q0 134 -58 199.5
t-185 65.5q-167 0 -244.5 -93t-77.5 -307v-176q0 -133 59.5 -197.5t184.5 -64.5q169 0 245 94t76 303v176z" />
    <glyph glyph-name="uni2D0A" unicode="&#x2d0a;" horiz-adv-x="1915" 
d="M1569 707q0 130 -53.5 195t-167.5 65q-153 0 -225 -89t-72 -272v-215q0 -133 54 -197.5t169 -64.5q153 0 224 93.5t71 303.5v181zM1606 0l-29 145h-8q-48 -80 -132.5 -122.5t-193.5 -42.5q-185 0 -278 95t-93 304v328q0 130 -54.5 195t-170.5 65q-152 0 -222.5 -93
t-70.5 -305v-569h-180v1098h145l27 -150h10q47 80 132.5 125t191.5 45q258 0 336 -184h10q53 88 144.5 136t207.5 48q186 0 278.5 -96t92.5 -307v-715h-143z" />
    <glyph glyph-name="uni2D0B" unicode="&#x2d0b;" horiz-adv-x="1300" 
d="M600 129q157 0 231 101.5t74 306.5v409h-270q-131 0 -202.5 -38.5t-102.5 -123t-31 -243.5q0 -412 301 -412zM1280 1098v-152h-195v-395q0 -571 -501 -571q-228 0 -349.5 144t-121.5 415q0 292 124 425.5t396 133.5h272v106q0 201 -219 201h-387v151h418q368 0 368 -352
v-106h195z" />
    <glyph glyph-name="uni2D0C" unicode="&#x2d0c;" horiz-adv-x="1266" 
d="M354 1100q0 -90 -10 -154h12q49 80 139 125t203 45q200 0 301 -95.5t101 -305.5v-715h-178v702q0 134 -59.5 199.5t-186.5 65.5q-167 0 -244.5 -93t-77.5 -307v-567h-180v1118q0 228 104.5 333t327.5 105h455v-151h-440q-150 0 -208.5 -61t-58.5 -205v-39z" />
    <glyph glyph-name="uni2D0D" unicode="&#x2d0d;" horiz-adv-x="1915" 
d="M344 1098v-707q0 -260 223 -260q152 0 224.5 87.5t72.5 273.5v606h178v-707q0 -130 55 -195t171 -65q152 0 222.5 93.5t70.5 303.5v570h180v-1098h-146l-26 150h-10q-50 -83 -135 -126.5t-189 -43.5q-258 0 -336 184h-10q-53 -88 -144.5 -136t-207.5 -48
q-186 0 -278.5 95.5t-92.5 307.5v715h178z" />
    <glyph glyph-name="uni2D0E" unicode="&#x2d0e;" horiz-adv-x="1370" 
d="M449 391q0 -133 59 -197.5t184 -64.5q170 0 247 93.5t77 303.5v572h180v-1098h-147l-27 145h-8q-49 -77 -139.5 -121t-208.5 -44q-199 0 -299.5 95t-100.5 304v463q0 59 -23 81.5t-77 22.5h-146v152h183q135 0 190.5 -50t55.5 -178v-479z" />
    <glyph glyph-name="uni2D0F" unicode="&#x2d0f;" horiz-adv-x="1370" 
d="M1196 -53q0 -128 23 -245t61 -194h-184q-80 168 -80 433v53q0 62 12 151h-14q-49 -77 -139.5 -121t-208.5 -44q-199 0 -299.5 95t-100.5 304v463q0 59 -23 81.5t-77 22.5h-146v152h183q135 0 190.5 -50t55.5 -178v-479q0 -133 59 -197.5t184 -64.5q170 0 247 93.5
t77 303.5v572h180v-1151z" />
    <glyph glyph-name="uni2D10" unicode="&#x2d10;" horiz-adv-x="1909" 
d="M899 0l-29 145h-8q-45 -77 -129 -121t-196 -44q-185 0 -279 95t-94 304v719h180v-707q0 -262 225 -262q153 0 224 93.5t71 303.5v1030h180v-454q0 -90 -10 -154h13q46 80 133 125t194 45q183 0 277 -96t94 -307v-715h-180v702q0 134 -54 199.5t-170 65.5
q-154 0 -225.5 -95.5t-71.5 -302.5v-569h-145z" />
    <glyph glyph-name="uni2D11" unicode="&#x2d11;" horiz-adv-x="1266" 
d="M344 1556v-1165q0 -133 59.5 -197.5t184.5 -64.5q169 0 246 94t77 303v572h181v-1098h-148l-26 145h-9q-49 -79 -139 -122t-209 -43q-198 0 -298.5 95t-100.5 304v1177h182z" />
    <glyph glyph-name="uni2D12" unicode="&#x2d12;" horiz-adv-x="1190" 
d="M643 -342q227 0 406 86v-166q-165 -70 -412 -70q-246 0 -360.5 120.5t-114.5 381.5v520q0 287 125.5 437.5t363.5 150.5q219 0 347 -152t128 -417q0 -267 -123 -418t-341 -151q-199 0 -318 159h-12l3 -41q7 -80 7 -139q0 -158 74.5 -229.5t226.5 -71.5zM647 129
q155 0 225 106t70 314q0 210 -70.5 314t-228.5 104q-153 0 -227 -101t-74 -305q0 -235 73 -333.5t232 -98.5z" />
    <glyph glyph-name="uni2D13" unicode="&#x2d13;" horiz-adv-x="1915" 
d="M1561 0q0 49 8 150h-10q-50 -83 -135 -126.5t-189 -43.5q-258 0 -336 184h-10q-53 -88 -144.5 -136t-207.5 -48q-186 0 -278.5 95.5t-92.5 307.5v715h178v-707q0 -260 223 -260q152 0 224.5 87.5t72.5 273.5v606h178v-707q0 -130 55 -195t171 -65q152 0 222.5 93.5
t70.5 303.5v1028h180v-1609q0 -128 23 -245t61 -194h-185q-79 170 -79 433v59z" />
    <glyph glyph-name="uni2D14" unicode="&#x2d14;" horiz-adv-x="1991" 
d="M600 969q-301 0 -301 -422q0 -209 72.5 -312.5t224.5 -103.5q165 0 237 94.5t72 317.5q0 426 -305 426zM1386 969q-144 0 -223.5 -112t-79.5 -314q0 -223 74.5 -318.5t243.5 -95.5q139 0 215 110.5t76 315.5q0 204 -77.5 309t-228.5 105zM905 -80q0 112 10 225h-10
q-107 -163 -340 -163q-215 0 -333.5 149t-118.5 418q0 276 126.5 422.5t362.5 146.5q281 0 395 -256q58 132 161 194t235 62q235 0 360 -145t125 -422q0 -269 -118.5 -420t-334.5 -151q-222 0 -340 161h-12l4 -35q8 -75 8 -180q0 -246 84 -418h-184q-80 172 -80 412z" />
    <glyph glyph-name="uni2D15" unicode="&#x2d15;" horiz-adv-x="975" 
d="M575 1556v-458h357v-152h-357v-946h-180v946h-354v152h354v458h180z" />
    <glyph glyph-name="uni2D16" unicode="&#x2d16;" horiz-adv-x="1358" 
d="M449 948q52 82 143.5 126t202.5 44q202 0 299.5 -98.5t97.5 -304.5v-715h-178v702q0 134 -59.5 199.5t-186.5 65.5q-169 0 -245.5 -93.5t-76.5 -304.5v-569h-180v842q0 59 -23 81.5t-77 22.5h-146v152h185q114 0 168 -34t65 -116h11z" />
    <glyph glyph-name="uni2D17" unicode="&#x2d17;" horiz-adv-x="1266" 
d="M1092 -53q0 -121 21 -236.5t63 -202.5h-185q-80 172 -80 433v53q0 55 13 151h-15q-49 -79 -139 -122t-209 -43q-198 0 -298.5 95t-100.5 304v719h182v-707q0 -133 59.5 -197.5t184.5 -64.5q169 0 246 94t77 303v572h181v-1151z" />
    <glyph glyph-name="uni2D18" unicode="&#x2d18;" horiz-adv-x="1266" 
d="M1092 2q0 -251 -120 -372.5t-372 -121.5q-234 0 -395 70v166q160 -86 405 -86q147 0 223 79t76 223v7v33q0 62 9 145h-9q-49 -79 -139 -122t-209 -43q-198 0 -298.5 95t-100.5 304v719h182v-707q0 -133 59.5 -197.5t184.5 -64.5q169 0 246 94t77 303v572h181v-1096z" />
    <glyph glyph-name="uni2D19" unicode="&#x2d19;" horiz-adv-x="1266" 
d="M174 1556h180v-456q0 -90 -10 -154h12q49 80 139 125t203 45q200 0 301 -95.5t101 -305.5v-715h-178v702q0 134 -59.5 199.5t-186.5 65.5q-167 0 -244.5 -93t-77.5 -307v-620q0 -128 23 -245t61 -194h-184q-80 172 -80 433v1615z" />
    <glyph glyph-name="uni2D1A" unicode="&#x2d1a;" horiz-adv-x="1266" 
d="M174 1098h145l27 -150h10q51 81 143 125.5t203 44.5q202 0 300 -98t98 -305v-715h-178v702q0 134 -59.5 199.5t-186.5 65.5q-169 0 -245.5 -93.5t-76.5 -304.5v-610q0 -155 73.5 -228t219.5 -73q115 0 219.5 23t177.5 63v-166q-155 -70 -411 -70q-459 0 -459 474v1116z
" />
    <glyph glyph-name="uni2D1B" unicode="&#x2d1b;" horiz-adv-x="1903" 
d="M893 0l-27 147h-8q-110 -167 -321 -167q-202 0 -313 148t-111 419q0 270 112 420.5t314 150.5q205 0 319 -162h12q-4 28 -7.5 78.5t-4.5 83.5v438h180v-456q0 -90 -10 -154h12q50 85 135.5 127.5t184.5 42.5q187 0 282 -95.5t95 -305.5v-715h-178v702q0 134 -55 199.5
t-171 65.5q-154 0 -224.5 -94t-70.5 -306v-567h-145zM569 129q151 0 221 89.5t70 293.5v33q0 229 -70.5 326.5t-222.5 97.5q-129 0 -198.5 -110.5t-69.5 -315.5q0 -204 69 -309t201 -105z" />
    <glyph glyph-name="uni2D1C" unicode="&#x2d1c;" horiz-adv-x="1915" 
d="M174 1098h145l27 -150h10q47 80 132.5 125t191.5 45q258 0 336 -184h10q53 88 144.5 136t207.5 48q186 0 278.5 -96t92.5 -307v-715h-178v707q0 260 -223 260q-153 0 -225 -89t-72 -272v-606h-179v707q0 130 -54.5 195t-170.5 65q-152 0 -222.5 -93t-70.5 -305v-622
q0 -128 23 -245t61 -194h-184q-80 172 -80 433v1157z" />
    <glyph glyph-name="uni2D1D" unicode="&#x2d1d;" horiz-adv-x="1358" 
d="M449 948q52 82 143.5 126t202.5 44q202 0 299.5 -98.5t97.5 -304.5v-203h-178v190q0 134 -59.5 199.5t-186.5 65.5q-169 0 -245.5 -93.5t-76.5 -304.5v-129h207q279 0 424.5 -113t145.5 -341q0 -218 -139 -348t-390 -130q-235 0 -361 108t-126 325q0 87 20 149h185
q-11 -27 -18 -72t-7 -81q0 -277 315 -277q161 0 247.5 84t86.5 238q0 160 -96.5 233.5t-282.5 73.5h-391v553q0 59 -23 81.5t-77 22.5h-146v152h185q114 0 168 -34t65 -116h11z" />
    <glyph glyph-name="uni2D1E" unicode="&#x2d1e;" horiz-adv-x="1266" 
d="M647 -342q111 0 215 22.5t182 63.5v-166q-155 -70 -411 -70q-459 0 -459 474v1116h180v-570q0 -211 77 -304t245 -93q127 0 186.5 65.5t59.5 198.5v703h178v-701q0 -217 -97 -317t-301 -100q-112 0 -204 45t-142 125h-12l3 -42q7 -86 7 -145q0 -160 72 -232.5t221 -72.5z
" />
    <glyph glyph-name="uni2D1F" unicode="&#x2d1f;" horiz-adv-x="1163" 
d="M-27 958v140h1123v-135l-326 -463l356 -500h-204l-256 377l-574 -866h-203l668 989l-242 344h199l152 -221l229 335h-922z" />
    <glyph glyph-name="uni2D20" unicode="&#x2d20;" horiz-adv-x="2021" 
d="M1147 391q0 -133 54.5 -197.5t168.5 -64.5q154 0 225.5 94t71.5 303v572h180v-1098h-147l-27 145h-8q-48 -79 -130.5 -122t-195.5 -43q-185 0 -278.5 95t-93.5 304v323q0 134 -55 199.5t-171 65.5q-154 0 -224.5 -93.5t-70.5 -304.5v-569h-180v842q0 59 -23 81.5
t-77 22.5h-146v152h185q114 0 168 -34t65 -116h11q47 80 132.5 125t190.5 45q189 0 282 -98.5t93 -304.5v-324z" />
    <glyph glyph-name="uni2D21" unicode="&#x2d21;" horiz-adv-x="1165" 
d="M354 -53q0 -128 23 -245t61 -194h-184q-80 172 -80 433v1615h180v-577h11q31 67 100.5 103t163.5 36q126 0 199 -67t73 -185q0 -98 30.5 -134t110.5 -36h103v-151h-156q-124 0 -197 64t-73 169q0 96 -37.5 142.5t-118.5 46.5q-100 0 -154.5 -73t-54.5 -210v-737z" />
    <glyph glyph-name="uni2D22" unicode="&#x2d22;" horiz-adv-x="1212" 
d="M532 1098q282 0 426 -136.5t144 -408.5q0 -267 -141 -420t-388 -153q-235 0 -361 118.5t-126 358.5q0 87 20 149h185q-11 -27 -18 -72t-7 -81q0 -166 77 -244t239 -78q160 0 246.5 109t86.5 309q0 397 -378 397h-392v152h387z" />
    <glyph glyph-name="uni2D23" unicode="&#x2d23;" horiz-adv-x="1266" 
d="M1092 -53q0 -121 21 -236.5t63 -202.5h-185q-80 172 -80 433v53q0 55 13 151h-15q-49 -79 -139 -122t-209 -43q-198 0 -298.5 95t-100.5 304v719h182v-707q0 -133 59.5 -197.5t184.5 -64.5q169 0 246 94t77 303v1030h181v-1609z" />
    <glyph glyph-name="uni2D24" unicode="&#x2d24;" horiz-adv-x="1217" 
d="M162 395v703h180v-707q0 -125 66 -192.5t200 -67.5q127 0 194.5 67t67.5 193v707h181v-707q0 -168 -94 -272.5t-261 -126.5q0 -312 84 -484h-184q-80 168 -80 484q-169 19 -261.5 124t-92.5 279z" />
    <glyph glyph-name="uni2D25" unicode="&#x2d25;" horiz-adv-x="1903" 
d="M858 547q0 229 -69 325.5t-222 96.5q-129 0 -198.5 -110.5t-69.5 -315.5q0 -209 68.5 -311.5t214.5 -102.5q276 0 276 418zM1038 1100q0 -90 -10 -154h12q50 85 135.5 127.5t184.5 42.5q187 0 282 -95.5t95 -305.5v-715h-178v702q0 134 -55 199.5t-171 65.5
q-154 0 -224.5 -94t-70.5 -306v-18q0 -268 -123 -418.5t-342 -150.5q-227 0 -343.5 141.5t-116.5 425.5q0 270 112 420.5t314 150.5q203 0 317 -162h12q-2 16 -6 75.5t-4 86.5q0 226 104.5 332t327.5 106h393v-151h-378q-150 0 -208.5 -61t-58.5 -205v-39z" />
    <glyph glyph-name="uniFEFF" unicode="&#xfeff;" horiz-adv-x="0" 
 />
    </font>
</defs>
</svg>
